<svg width="17" height="16" viewBox="0 0 17 16" fill="none" xmlns="http://www.w3.org/2000/svg">
<path fill-rule="evenodd" clip-rule="evenodd" d="M6.00117 7.41676C4.21784 7.41676 2.77217 8.83359 2.77217 10.5813C2.77217 12.3291 4.21784 13.7459 6.00117 13.7459C7.7845 13.7459 9.23017 12.3291 9.23017 10.5813C9.23017 8.83359 7.7845 7.41676 6.00117 7.41676ZM1.90667 10.5813C1.90667 8.36512 3.73984 6.56852 6.00117 6.56852C8.2625 6.56852 10.0957 8.36512 10.0957 10.5813C10.0957 12.7976 8.2625 14.5942 6.00117 14.5942C3.73984 14.5942 1.90667 12.7976 1.90667 10.5813Z" fill="#005DAC"/>
<path fill-rule="evenodd" clip-rule="evenodd" d="M7.71238 8.81202C7.71238 8.67458 7.60096 8.56316 7.46352 8.56316H4.53839C4.40095 8.56316 4.28953 8.67458 4.28953 8.81202C4.28953 8.94946 4.40095 9.06088 4.53839 9.06088H5.766C6.18855 9.18795 6.33181 9.48392 6.37835 9.74769H4.71761C4.56643 9.74769 4.44386 9.87025 4.44386 10.0214C4.44386 10.1726 4.56643 10.2952 4.71761 10.2952H6.36067C6.32261 10.4355 6.24945 10.5835 6.11688 10.7019C5.85281 10.9359 5.39517 10.959 4.801 10.8993C4.65092 10.8859 4.52169 11.0042 4.52169 11.1548V11.2414C4.52169 11.3255 4.55327 11.4065 4.61018 11.4685L6.05215 13.0379C6.11035 13.1012 6.19243 13.1373 6.27845 13.1373C6.5539 13.1373 6.69026 12.8029 6.49334 12.6103L5.29467 11.4379C6.49865 11.4379 6.86607 10.9156 6.94047 10.2952H7.28318C7.43437 10.2952 7.55693 10.1726 7.55693 10.0214C7.55693 9.87025 7.43437 9.74769 7.28318 9.74769H6.93401C6.89364 9.48902 6.79161 9.25299 6.617 9.06088H7.46352C7.60096 9.06088 7.71238 8.94946 7.71238 8.81202Z" fill="#005DAC"/>
<path fill-rule="evenodd" clip-rule="evenodd" d="M11.5703 1.38851C11.4763 1.33625 11.3656 1.32039 11.2602 1.34406L8.29619 2.00961C8.25154 1.82198 8.0798 1.68221 7.87474 1.68221H2.25749C2.02326 1.68221 1.83337 1.8721 1.83337 2.10633C1.83337 2.34057 2.02326 2.53045 2.25749 2.53045H7.44199V4.39541H2.25749C2.02326 4.39541 1.83337 4.58529 1.83337 4.81953C1.83337 5.05376 2.02326 5.24365 2.25749 5.24365H7.87474C8.01984 5.24365 8.14825 5.17367 8.22677 5.06627L9.31635 5.34805C9.32678 5.74395 9.43494 6.22669 9.64613 6.67465C9.86746 7.1441 10.2261 7.625 10.7639 7.90613C11.0072 8.03332 11.3097 7.9431 11.4395 7.70463C11.5692 7.46615 11.4772 7.16973 11.2339 7.04254C10.9506 6.89447 10.7178 6.61429 10.5527 6.26412C10.4492 6.04452 10.3817 5.81693 10.3458 5.61428L10.5887 5.67708C11.2546 5.84929 11.9161 5.38541 11.9647 4.71212C11.9652 4.705 11.9657 4.6979 11.966 4.69084L13.1658 5.10812V14.1673C13.1658 14.4431 13.3894 14.6667 13.6651 14.6667C13.9409 14.6667 14.1645 14.4431 14.1645 14.1673V5.27956C14.5082 5.21483 14.8194 5.00795 15.0039 4.6916C15.3429 4.11015 15.1354 3.36939 14.5409 3.0391L11.5703 1.38851ZM8.3075 4.20987L10.8095 4.85691C10.9502 4.89329 11.0899 4.79583 11.1012 4.65394C11.1009 4.65126 11.0983 4.63237 11.0762 4.59389C11.048 4.54506 11.0019 4.48866 10.9424 4.43037C10.8844 4.37358 10.8237 4.32477 10.7765 4.28974C10.7533 4.27252 10.7344 4.25938 10.722 4.25102L10.709 4.24232L10.7079 4.24165C10.5228 4.12542 10.4559 3.89152 10.5525 3.69798C10.6492 3.50438 10.8787 3.41264 11.0859 3.48472L13.7859 4.42371C13.7901 4.42515 13.7942 4.42666 13.7983 4.42822C13.9686 4.49323 14.1617 4.42625 14.2524 4.27076C14.3537 4.09702 14.2917 3.87569 14.1141 3.777L11.2897 2.20766L8.3075 2.87729V4.20987Z" fill="#005DAC"/>
</svg>
