<svg width="55" height="55" viewBox="0 0 55 55" fill="none" xmlns="http://www.w3.org/2000/svg">
<g opacity="0.15">
<path d="M48.5495 26.936C48.5341 26.9694 48.5185 27.0027 48.5028 27.036C47.8907 28.3385 45.9326 27.8214 46.0533 26.3873C46.2737 23.7663 45.9495 21.0571 45.0051 18.4191C41.9398 9.85604 31.6478 0.105896 22.534 8.49643e-05C21.5608 -0.0111943 21.0019 1.10299 21.5763 1.88867C22.3421 2.93603 22.964 4.11671 23.4043 5.41178C24.8496 9.663 23.9599 14.1891 21.4151 17.5519C20.3542 18.9537 18.1016 18.2614 18.0645 16.5037C18.0642 16.4911 18.064 16.4783 18.0637 16.4655C18.0488 15.5337 18.2017 14.6391 18.4949 13.8106C18.6243 13.4452 18.2856 13.0857 17.9145 13.1975C12.7479 14.7548 8.81912 22.3577 8.81912 27.7807C8.81912 28.1767 8.84114 28.5676 8.88207 28.9529C8.88712 29.6731 9.00883 30.4057 9.26331 31.1262C9.27244 31.1521 9.28168 31.1779 9.29092 31.2038C9.3702 31.4252 9.45441 31.6435 9.541 31.86C8.31735 30.3642 7.27644 28.7129 6.45315 26.94C6.07062 26.1163 4.85987 26.2798 4.7112 27.1758C4.4463 28.7714 4.30762 30.3277 4.30762 31.8073C4.30762 44.6163 14.6913 55 27.5003 55C40.3093 55 50.693 44.6163 50.693 31.8073C50.693 30.3276 50.5543 28.7712 50.2893 27.1753C50.141 26.2815 48.931 26.114 48.5495 26.936Z" fill="url(#paint0_linear_1_5862)"/>
<path d="M48.9253 40.6999L33.8482 25.6228L18.4595 47.7468L25.6383 54.9256C26.2525 54.9743 26.8732 55 27.5 55C37.1584 55 45.4367 49.0956 48.9253 40.6999Z" fill="url(#paint1_linear_1_5862)"/>
<path d="M39.2499 35.7619C39.2412 35.7806 39.2326 35.7992 39.2238 35.8178C38.8822 36.5448 37.7892 36.2562 37.8564 35.4556C37.9794 33.9926 37.7985 32.4804 37.2713 31.0077C35.5602 26.2278 29.8151 20.7851 24.7277 20.7261C24.1844 20.7197 23.8725 21.3417 24.1932 21.7803C24.6206 22.365 24.9678 23.024 25.2136 23.747C26.0203 26.12 25.5237 28.6466 24.1032 30.5237C23.511 31.3063 22.2536 30.9198 22.2329 29.9386C22.2327 29.9315 22.2325 29.9244 22.2324 29.9172C22.224 29.3971 22.3094 28.8976 22.4732 28.4352C22.5453 28.2313 22.3563 28.0305 22.1492 28.0929C19.2651 28.9623 17.0721 33.2062 17.0721 36.2334C17.0721 36.4545 17.0844 36.6726 17.1072 36.8877C17.11 37.2898 17.178 37.6986 17.32 38.1008C17.3252 38.1152 17.3302 38.1297 17.3354 38.1441C17.3796 38.2677 17.4267 38.3894 17.4749 38.5104C16.7918 37.6754 16.2109 36.7536 15.7512 35.7641C15.5377 35.3042 14.8619 35.3956 14.7789 35.8956C14.6309 36.7864 14.5536 37.6551 14.5536 38.481C14.5536 45.6311 20.3499 51.4273 27.5 51.4273C34.6501 51.4273 40.4463 45.6311 40.4463 38.481C40.4463 37.655 40.3689 36.7862 40.221 35.8954C40.1383 35.3966 39.4628 35.3031 39.2499 35.7619Z" fill="url(#paint2_linear_1_5862)"/>
<path d="M6.78675 19.2633C8.48369 19.6113 9.83592 17.8661 9.15851 16.2718C8.65224 15.0803 8.73173 13.666 9.49539 12.5024C9.49668 12.5004 9.49797 12.4985 9.49915 12.4966C9.69219 12.2035 9.53803 11.8091 9.19568 11.7319C7.61379 11.3756 5.90707 12.0068 4.96476 13.4425C3.75047 15.2927 4.26598 17.7771 6.11622 18.9915C6.32344 19.1273 6.54956 19.2146 6.78675 19.2633Z" fill="url(#paint3_linear_1_5862)"/>
<path d="M24.1898 45.3678C24.0554 45.3678 23.9195 45.329 23.7992 45.2479C23.4749 45.0294 23.3871 44.5864 23.6032 44.2584L30.0982 34.3986C30.3142 34.0706 30.7523 33.9818 31.0766 34.2004C31.4009 34.4189 31.4887 34.8619 31.2726 35.19L24.7776 45.0497C24.6417 45.2561 24.4178 45.3678 24.1898 45.3678Z" fill="#005DAC"/>
<path d="M24.1467 38.6383C24.1409 38.6383 24.135 38.6383 24.1292 38.6382C22.8733 38.6286 21.8592 37.5874 21.8687 36.3171C21.8782 35.0529 22.8983 34.0309 24.1462 34.0309C24.1521 34.0309 24.1579 34.0309 24.1637 34.0309C24.7721 34.0356 25.3423 34.2796 25.7693 34.718C26.1962 35.1563 26.4288 35.7367 26.4242 36.3521C26.4147 37.6163 25.3947 38.6383 24.1467 38.6383ZM25.013 36.3412C25.0147 36.1071 24.9263 35.8863 24.7639 35.7195C24.6014 35.5527 24.3845 35.46 24.153 35.4581C24.1508 35.4581 24.1486 35.4581 24.1463 35.4581C23.6715 35.4581 23.2834 35.8469 23.2798 36.3279C23.2781 36.562 23.3665 36.7828 23.529 36.9496C23.6914 37.1164 23.9083 37.2092 24.1398 37.211H24.1464C24.6213 37.211 25.0094 36.8222 25.013 36.3412Z" fill="#005DAC"/>
<path d="M30.8537 45.5248C30.8477 45.5248 30.842 45.5248 30.8362 45.5247C30.2278 45.5201 29.6575 45.2761 29.2306 44.8377C28.8037 44.3993 28.5711 43.8189 28.5756 43.2036C28.5851 41.9393 29.6052 40.9174 30.8531 40.9174C30.8591 40.9174 30.8648 40.9174 30.8706 40.9174C31.479 40.922 32.0492 41.166 32.4762 41.6045C32.9031 42.0428 33.1357 42.6232 33.1311 43.2385C33.1216 44.5028 32.1016 45.5248 30.8537 45.5248ZM31.7199 43.2276C31.7216 42.9936 31.6332 42.7727 31.4708 42.606C31.3083 42.4392 31.0914 42.3464 30.86 42.3446C30.8578 42.3446 30.8555 42.3446 30.8533 42.3446C30.3785 42.3446 29.9904 42.7334 29.9869 43.2144C29.9851 43.4485 30.0736 43.6693 30.236 43.836C30.3984 44.0028 30.6154 44.0956 30.8469 44.0974H30.8535C31.3283 44.0975 31.7164 43.7087 31.7199 43.2276Z" fill="#005DAC"/>
</g>
<defs>
<linearGradient id="paint0_linear_1_5862" x1="15.4837" y1="18.9682" x2="38.1686" y2="41.6531" gradientUnits="userSpaceOnUse">
<stop stop-color="#236AB5"/>
<stop offset="1" stop-color="#003D6E"/>
</linearGradient>
<linearGradient id="paint1_linear_1_5862" x1="44.9321" y1="51.5007" x2="27.3192" y2="38.4825" gradientUnits="userSpaceOnUse">
<stop stop-color="#004074"/>
<stop offset="1" stop-color="#052D4F"/>
</linearGradient>
<linearGradient id="paint2_linear_1_5862" x1="22.1831" y1="32.0996" x2="32.5977" y2="44.1988" gradientUnits="userSpaceOnUse">
<stop stop-color="#E5F6FF"/>
<stop offset="1" stop-color="#86D5FF"/>
</linearGradient>
<linearGradient id="paint3_linear_1_5862" x1="5.45697" y1="13.4989" x2="10.2048" y2="17.481" gradientUnits="userSpaceOnUse">
<stop stop-color="#246AB5"/>
<stop offset="1" stop-color="#003D6E"/>
</linearGradient>
</defs>
</svg>
