<svg width="28" height="29" viewBox="0 0 28 29" fill="none" xmlns="http://www.w3.org/2000/svg">
<path d="M20.5822 1.43416L22.2032 2.32551C22.3757 2.42034 22.4563 2.34492 22.4563 2.27501L21.3973 0.791726C21.3973 0.791726 22.491 0.208284 22.5493 0.158866C22.6292 0.0910522 22.753 0.0874545 22.8922 0.164025L24.7697 1.19637C25.0105 1.32867 25.2056 1.65063 25.2056 1.9153V3.69801C25.2056 3.88767 25.3145 4.03633 25.3781 4.07129C25.4417 4.10625 27.0798 5.00697 27.0798 5.00697C27.3205 5.13927 27.5156 5.46117 27.5156 5.7259V7.79059C27.5156 7.92289 27.4669 8.01596 27.388 8.05933C27.3091 8.10264 26.1892 8.71256 26.1892 8.71256L25.4587 7.13893C25.2862 7.0441 25.2056 7.11958 25.2056 7.18943V9.06079C25.2056 9.19316 25.1568 9.28623 25.0779 9.32953C24.9991 9.37291 23.8374 9.99953 23.8374 9.99953L22.8922 8.26821C22.6515 8.13577 22.4564 7.81394 22.4564 7.5492V5.76656C22.4564 5.57684 22.3475 5.42824 22.2839 5.39328L20.5823 4.4576C20.3415 4.32523 20.1464 4.00334 20.1464 3.7386L19.1001 2.05168C19.1001 2.05168 20.1838 1.47244 20.246 1.42377C20.3258 1.36112 20.4468 1.35976 20.5822 1.43416Z" fill="url(#paint0_linear_1_5128)"/>
<path d="M19.4113 2.07245L21.0323 2.9638C21.2048 3.05863 21.2855 2.98315 21.2855 2.9133V1.04194C21.2855 0.777135 21.4806 0.669882 21.7214 0.802251L23.5989 1.83459C23.8396 1.96696 24.0347 2.28879 24.0347 2.55353V4.33623C24.0347 4.52596 24.1436 4.67456 24.2072 4.70951C24.2707 4.74447 25.9088 5.64519 25.9088 5.64519C26.1495 5.7775 26.3447 6.09939 26.3447 6.36413V8.42881C26.3447 8.69355 26.1495 8.80087 25.9088 8.6685L24.2878 7.77722C24.1153 7.68239 24.0346 7.75787 24.0346 7.82772V9.69902C24.0346 9.96382 23.8396 10.0711 23.5988 9.93871L21.7213 8.90636C21.4805 8.77399 21.2855 8.45217 21.2855 8.18743V6.40472C21.2855 6.21499 21.1765 6.0664 21.1129 6.03144L19.4113 5.09576C19.1705 4.96346 18.9754 4.64157 18.9754 4.37683V2.31207C18.9755 2.0474 19.1706 1.94008 19.4113 2.07245Z" fill="url(#paint1_linear_1_5128)"/>
<path d="M27.244 23.1472C27.8978 22.8819 28.0286 21.7747 27.5362 20.6741C27.0439 19.5736 26.1147 18.8964 25.461 19.1617C24.8072 19.427 24.6764 20.5343 25.1688 21.6348C25.6611 22.7354 26.5903 23.4125 27.244 23.1472Z" fill="url(#paint2_linear_1_5128)"/>
<path d="M26.4664 22.2538C26.7788 22.127 26.8414 21.5979 26.6061 21.072C26.3708 20.5461 25.9268 20.2225 25.6144 20.3493C25.3019 20.4761 25.2394 21.0052 25.4747 21.5311C25.71 22.057 26.154 22.3806 26.4664 22.2538Z" fill="url(#paint3_linear_1_5128)"/>
<path d="M26.5151 21.4009C26.5151 21.6607 26.3493 21.7801 26.1446 21.6676C25.9401 21.5551 25.7742 21.2533 25.7742 20.9935C25.7742 20.7337 25.9401 20.6143 26.1446 20.7268C26.3492 20.8393 26.5151 21.1411 26.5151 21.4009Z" fill="#D6D0EA"/>
<path d="M16.8844 26.818C16.541 26.818 16.2628 26.5529 16.2628 26.2259V24.6855C16.2628 24.3097 16.475 23.9596 16.8166 23.7717L25.4209 19.0406C25.6702 18.9035 25.9801 18.9034 26.2296 19.0406C26.4791 19.1778 26.634 19.4334 26.634 19.7077V21.2067C26.634 21.5337 26.3558 21.7987 26.0124 21.7987C25.669 21.7987 25.3908 21.5337 25.3908 21.2067V20.4244L17.5059 24.7599V26.2259C17.506 26.5529 17.2277 26.818 16.8844 26.818Z" fill="url(#paint4_linear_1_5128)"/>
<path d="M17.3081 28.6162C17.9618 28.3509 18.0926 27.2437 17.6003 26.1431C17.1079 25.0426 16.1788 24.3654 15.525 24.6307C14.8712 24.896 14.7404 26.0033 15.2328 27.1038C15.7252 28.2044 16.6543 28.8815 17.3081 28.6162Z" fill="url(#paint5_linear_1_5128)"/>
<path d="M16.7995 27.1644C16.7995 27.6609 16.4826 27.8891 16.0916 27.6742C15.7006 27.4591 15.3836 26.8824 15.3836 26.3859C15.3836 25.8894 15.7005 25.6612 16.0916 25.8762C16.4826 26.0911 16.7995 26.6679 16.7995 27.1644Z" fill="url(#paint6_linear_1_5128)"/>
<path d="M16.5768 26.8653C16.5768 27.1251 16.411 27.2445 16.2064 27.132C16.0017 27.0196 15.8359 26.7177 15.8359 26.4579C15.8359 26.1981 16.0017 26.0787 16.2064 26.1912C16.4109 26.3037 16.5768 26.6055 16.5768 26.8653Z" fill="url(#paint7_linear_1_5128)"/>
<path d="M23.7835 15.8576C23.5547 15.8576 23.3691 15.6809 23.3691 15.4629V12.0584C23.3691 11.7585 23.1997 11.479 22.9271 11.3291L19.3935 9.38617C19.3689 9.37263 19.3439 9.37263 19.3192 9.38617C19.2945 9.39972 19.282 9.42039 19.282 9.44753V12.7598C19.282 12.9778 19.0965 13.1545 18.8676 13.1545C18.6387 13.1545 18.4532 12.9778 18.4532 12.7598V9.44753C18.4532 9.13652 18.622 8.85807 18.9047 8.70254C19.1874 8.54706 19.5251 8.54706 19.8079 8.70259L23.3414 10.6455C23.8698 10.936 24.1979 11.4775 24.1979 12.0585V15.463C24.1979 15.6809 24.0124 15.8576 23.7835 15.8576Z" fill="url(#paint8_linear_1_5128)"/>
<path d="M13.0769 13.8714C13.0769 14.9103 12.4136 15.3879 11.5955 14.938C10.7773 14.4881 10.114 13.2812 10.114 12.2422C10.114 11.2032 10.7773 10.7256 11.5955 11.1755C12.4137 11.6254 13.0769 12.8323 13.0769 13.8714Z" fill="#594A8D"/>
<path d="M11.9891 13.5785C11.9891 14.075 11.6721 14.3032 11.2811 14.0881C10.8902 13.8731 10.5732 13.2964 10.5732 12.7999C10.5732 12.3034 10.8902 12.0752 11.2811 12.2902C11.6721 12.5052 11.9891 13.0819 11.9891 13.5785Z" fill="#C4B9EA"/>
<path d="M11.6182 13.5679C11.7817 13.5016 11.8144 13.2247 11.6913 12.9495C11.5682 12.6743 11.3358 12.5049 11.1723 12.5713C11.0088 12.6376 10.9761 12.9145 11.0992 13.1897C11.2224 13.4649 11.4547 13.6343 11.6182 13.5679Z" fill="#D6D0EA"/>
<path d="M2.12552 18.7021C1.78221 18.7021 1.50389 18.4371 1.50389 18.1101V16.5696C1.50389 16.1939 1.71611 15.8438 2.05773 15.6559L10.662 10.9248C10.9114 10.7876 11.2213 10.7876 11.4708 10.9248C11.7202 11.0619 11.8752 11.3175 11.8752 11.5919V13.0909C11.8752 13.4179 11.5969 13.6829 11.2536 13.6829C10.9103 13.6829 10.632 13.4179 10.632 13.0909V12.3085L2.74716 16.6441V18.11C2.74716 18.437 2.46883 18.7021 2.12552 18.7021Z" fill="url(#paint9_linear_1_5128)"/>
<path d="M2.54697 20.5004C3.20072 20.2351 3.33154 19.1278 2.83916 18.0273C2.34679 16.9267 1.41766 16.2496 0.763901 16.5149C0.110144 16.7802 -0.0206776 17.8874 0.471702 18.988C0.964082 20.0885 1.89321 20.7656 2.54697 20.5004Z" fill="url(#paint10_linear_1_5128)"/>
<path d="M2.04067 19.0394C2.04067 19.5359 1.72372 19.7641 1.33274 19.5491C0.941761 19.3341 0.624817 18.7574 0.624817 18.2608C0.624817 17.7643 0.941761 17.5361 1.33274 17.7512C1.72372 17.9662 2.04067 18.5429 2.04067 19.0394Z" fill="url(#paint11_linear_1_5128)"/>
<path d="M1.81343 18.7448C1.81343 19.0046 1.6476 19.124 1.44297 19.0116C1.23835 18.8991 1.07251 18.5973 1.07251 18.3374C1.07251 18.0776 1.23835 17.9582 1.44297 18.0707C1.6476 18.1832 1.81343 18.485 1.81343 18.7448Z" fill="url(#paint12_linear_1_5128)"/>
<path d="M25.7721 19.9065C25.7018 19.9065 25.6306 19.8894 25.5653 19.8535L9.98906 11.2888C9.79084 11.1798 9.72293 10.9385 9.83739 10.7497C9.95179 10.5609 10.2053 10.4962 10.4035 10.6052L25.9797 19.1699C26.1779 19.2789 26.2458 19.5203 26.1314 19.7091C26.0547 19.8357 25.9153 19.9065 25.7721 19.9065Z" fill="url(#paint13_linear_1_5128)"/>
<path d="M26.0469 17.2211L9.61501 8.18585L1.47166 12.8564V13.6413C1.47166 13.9672 1.65476 14.2683 1.95158 14.4305L17.3435 22.841L26.0469 17.2211Z" fill="url(#paint14_linear_1_5128)"/>
<path d="M1.82065 13.3244L17.3021 21.8275L26.0464 17.2211L9.6145 8.18585L1.82065 13.3244Z" fill="url(#paint15_linear_1_5128)"/>
<path d="M11.5789 1.7229L10.8199 1.3128C10.7285 1.26788 10.6149 1.26343 10.5131 1.31938L2.08919 5.92559C1.70721 6.13567 1.47183 6.52383 1.47183 6.94395V12.9511C1.47183 13.0744 1.54564 13.1729 1.64638 13.2223L2.38275 13.6217C2.38298 13.6219 2.38314 13.6219 2.38337 13.622C2.47686 13.6733 2.59693 13.6806 2.70374 13.6219L11.1277 9.01568C11.5097 8.80565 11.745 8.41744 11.745 7.99732V1.99017C11.745 1.8703 11.6754 1.7736 11.5789 1.7229Z" fill="url(#paint16_linear_1_5128)"/>
<path d="M2.83996 6.3299L11.2639 1.72369C11.4777 1.60612 11.745 1.75308 11.745 1.98823V7.99538C11.745 8.4155 11.5097 8.80371 11.1276 9.01374L2.70369 13.6199C2.48984 13.7375 2.2226 13.5906 2.2226 13.3554V7.34826C2.2226 6.92814 2.45791 6.53993 2.83996 6.3299Z" fill="url(#paint17_linear_1_5128)"/>
<path d="M26.0034 15.2266C26.0034 14.4069 25.5443 13.6496 24.799 13.2398L15.1173 7.8986L12.568 3.24593C12.3101 2.77661 11.6714 2.64014 11.2277 2.9596L3.23247 7.35738C3.16681 7.3842 3.10307 7.41836 3.04314 7.46151C2.65357 7.742 2.53405 8.2496 2.76049 8.66169L5.65908 13.9502C5.90834 14.4038 6.28791 14.7806 6.75349 15.0365L16.5366 20.4335C16.7958 20.576 17.0842 20.5723 17.3219 20.4675L17.322 20.4674C17.3692 20.4466 17.4143 20.4218 17.4568 20.3933L25.5432 15.9483L25.5421 15.9476C25.8086 15.8154 26.0034 15.5536 26.0034 15.2266Z" fill="url(#paint18_linear_1_5128)"/>
<path d="M4.383 7.74784L6.93221 12.4006L15.1168 7.89866L12.5675 3.24593C12.3096 2.77661 11.6709 2.64014 11.2272 2.9596L3.23198 7.35738C3.65225 7.18573 4.15993 7.34196 4.383 7.74784Z" fill="url(#paint19_linear_1_5128)"/>
<path d="M16.5366 20.4316L6.75349 15.0346C6.28791 14.7786 5.90834 14.4018 5.65908 13.9482L2.76049 8.65973C2.53405 8.24764 2.65357 7.74009 3.04314 7.4596C3.48685 7.14014 4.12557 7.27661 4.38349 7.74593L6.9327 12.3987L16.6144 17.7399C17.3597 18.1497 17.8188 18.907 17.8188 19.7266C17.8189 20.3532 17.1065 20.7449 16.5366 20.4316Z" fill="url(#paint20_linear_1_5128)"/>
<path d="M26.497 12.1741L25.738 11.764C25.6466 11.7191 25.533 11.7146 25.4312 11.7706L17.0073 16.3767C16.6253 16.5868 16.39 16.975 16.39 17.3951V22.1448C16.39 22.2681 16.4638 22.3666 16.5645 22.416L17.3008 22.8154C17.3944 22.867 17.5148 22.8744 17.6219 22.8156L26.0458 18.2094C26.4278 17.9993 26.6631 17.6111 26.6631 17.191V12.4414C26.6631 12.3214 26.5934 12.2248 26.497 12.1741Z" fill="url(#paint21_linear_1_5128)"/>
<path d="M17.7558 16.7811L26.1798 12.1749C26.3936 12.0573 26.6608 12.2043 26.6608 12.4394V17.189C26.6608 17.6092 26.4255 17.9974 26.0434 18.2074L17.6195 22.8136C17.4057 22.9312 17.1384 22.7842 17.1384 22.5491V17.7994C17.1385 17.3793 17.3738 16.9911 17.7558 16.7811Z" fill="url(#paint22_linear_1_5128)"/>
<path d="M15.2776 20.5419C15.0488 20.5419 14.8632 20.3652 14.8632 20.1472V16.7426C14.8632 16.4427 14.6938 16.1633 14.4211 16.0133L10.8876 14.0704C10.8629 14.0569 10.838 14.0569 10.8132 14.0704C10.7885 14.084 10.7761 14.1046 10.7761 14.1317V17.4441C10.7761 17.662 10.5906 17.8387 10.3616 17.8387C10.1328 17.8387 9.94722 17.6621 9.94722 17.4441V14.1317C9.94722 13.8208 10.116 13.5423 10.3988 13.3868C10.6817 13.2314 11.0193 13.2313 11.302 13.3868L14.8355 15.3298C15.3638 15.6203 15.6921 16.1616 15.6921 16.7426V20.1472C15.692 20.3651 15.5065 20.5419 15.2776 20.5419Z" fill="url(#paint23_linear_1_5128)"/>
<path d="M17.8002 24.3121C17.7298 24.3121 17.6586 24.2951 17.5934 24.2592L2.01706 15.6944C1.81884 15.5854 1.75093 15.344 1.86539 15.1553C1.97979 14.9664 2.23332 14.9018 2.43148 15.0108L18.0078 23.5756C18.206 23.6846 18.2739 23.9259 18.1595 24.1147C18.0827 24.2413 17.9434 24.3121 17.8002 24.3121Z" fill="url(#paint24_linear_1_5128)"/>
<path d="M19.474 17.5654C19.474 17.5216 19.4978 17.4813 19.5361 17.4603L24.0828 14.9602C24.1628 14.9162 24.2606 14.9741 24.2606 15.0654V17.6861C24.2606 17.7299 24.2368 17.7702 24.1984 17.7913L19.6518 20.2913C19.5718 20.3353 19.474 20.2775 19.474 20.1862V17.5654Z" fill="url(#paint25_linear_1_5128)"/>
<path d="M14.8263 18.1274L11.0307 16.0164C10.8418 15.9125 10.6003 15.9741 10.4912 16.1541C10.3821 16.334 10.4468 16.564 10.6357 16.6678L14.8263 18.9985V18.1274H14.8263Z" fill="url(#paint26_linear_1_5128)"/>
<defs>
<linearGradient id="paint0_linear_1_5128" x1="25.3127" y1="11.1736" x2="24.5812" y2="4.29774" gradientUnits="userSpaceOnUse">
<stop stop-color="#D3E7FF"/>
<stop offset="1" stop-color="#BBDBFF"/>
</linearGradient>
<linearGradient id="paint1_linear_1_5128" x1="22.66" y1="9.53858" x2="22.66" y2="2.39909" gradientUnits="userSpaceOnUse">
<stop stop-color="#054A86"/>
<stop offset="1" stop-color="#0C6ECA"/>
</linearGradient>
<linearGradient id="paint2_linear_1_5128" x1="27.156" y1="22.9504" x2="25.8896" y2="19.8296" gradientUnits="userSpaceOnUse">
<stop stop-color="#002E56"/>
<stop offset="1" stop-color="#054581"/>
</linearGradient>
<linearGradient id="paint3_linear_1_5128" x1="25.6144" y1="20.3493" x2="26.3984" y2="22.2814" gradientUnits="userSpaceOnUse">
<stop stop-color="#DDEFFF"/>
<stop offset="1" stop-color="#EBF6FF"/>
</linearGradient>
<linearGradient id="paint4_linear_1_5128" x1="26.634" y1="19.0914" x2="16.2628" y2="26.6643" gradientUnits="userSpaceOnUse">
<stop stop-color="#DDEFFF"/>
<stop offset="1" stop-color="#CBD8E3"/>
</linearGradient>
<linearGradient id="paint5_linear_1_5128" x1="17.22" y1="28.4194" x2="15.9536" y2="25.2986" gradientUnits="userSpaceOnUse">
<stop stop-color="#002E56"/>
<stop offset="1" stop-color="#054581"/>
</linearGradient>
<linearGradient id="paint6_linear_1_5128" x1="16.0916" y1="25.7953" x2="16.0916" y2="27.7551" gradientUnits="userSpaceOnUse">
<stop stop-color="#DDEFFF"/>
<stop offset="1" stop-color="#EBF6FF"/>
</linearGradient>
<linearGradient id="paint7_linear_1_5128" x1="16.0299" y1="27.2961" x2="16.1188" y2="26.5863" gradientUnits="userSpaceOnUse">
<stop stop-color="#3376C3"/>
<stop offset="1" stop-color="#93BBE9"/>
</linearGradient>
<linearGradient id="paint8_linear_1_5128" x1="21.3255" y1="8.58594" x2="21.3255" y2="15.8576" gradientUnits="userSpaceOnUse">
<stop stop-color="#C0DBF2"/>
<stop offset="1" stop-color="#EBF6FF"/>
</linearGradient>
<linearGradient id="paint9_linear_1_5128" x1="6.68956" y1="10.8219" x2="6.68956" y2="18.7021" gradientUnits="userSpaceOnUse">
<stop stop-color="#DDEFFF"/>
<stop offset="1" stop-color="#EBF6FF"/>
</linearGradient>
<linearGradient id="paint10_linear_1_5128" x1="2.4589" y1="20.3035" x2="1.19251" y2="17.1828" gradientUnits="userSpaceOnUse">
<stop stop-color="#002E56"/>
<stop offset="1" stop-color="#054581"/>
</linearGradient>
<linearGradient id="paint11_linear_1_5128" x1="1.33274" y1="17.6702" x2="1.33274" y2="19.63" gradientUnits="userSpaceOnUse">
<stop stop-color="#DDEFFF"/>
<stop offset="1" stop-color="#EBF6FF"/>
</linearGradient>
<linearGradient id="paint12_linear_1_5128" x1="1.26646" y1="19.1756" x2="1.35537" y2="18.4659" gradientUnits="userSpaceOnUse">
<stop stop-color="#3376C3"/>
<stop offset="1" stop-color="#93BBE9"/>
</linearGradient>
<linearGradient id="paint13_linear_1_5128" x1="24.5914" y1="19.9065" x2="9.91232" y2="14.6216" gradientUnits="userSpaceOnUse">
<stop stop-color="#DDEFFF"/>
<stop offset="1" stop-color="#CBD8E3"/>
</linearGradient>
<linearGradient id="paint14_linear_1_5128" x1="13.7593" y1="22.1172" x2="13.7593" y2="10.8057" gradientUnits="userSpaceOnUse">
<stop stop-color="#054A86"/>
<stop offset="1" stop-color="#0C6ECA"/>
</linearGradient>
<linearGradient id="paint15_linear_1_5128" x1="13.9335" y1="21.1537" x2="13.9335" y2="10.6245" gradientUnits="userSpaceOnUse">
<stop stop-color="#002E56"/>
<stop offset="1" stop-color="#054581"/>
</linearGradient>
<linearGradient id="paint16_linear_1_5128" x1="6.60843" y1="13.0516" x2="6.60843" y2="3.49226" gradientUnits="userSpaceOnUse">
<stop stop-color="#054A86"/>
<stop offset="1" stop-color="#0C6ECA"/>
</linearGradient>
<linearGradient id="paint17_linear_1_5128" x1="4.71521" y1="15.0831" x2="5.66174" y2="6.77026" gradientUnits="userSpaceOnUse">
<stop stop-color="#3376C3"/>
<stop offset="1" stop-color="#93BBE9"/>
</linearGradient>
<linearGradient id="paint18_linear_1_5128" x1="3.07436" y1="21.043" x2="14.0569" y2="9.82879" gradientUnits="userSpaceOnUse">
<stop stop-color="#6AA4E7"/>
<stop offset="1" stop-color="#C2DFFF"/>
</linearGradient>
<linearGradient id="paint19_linear_1_5128" x1="4.31117" y1="19.0517" x2="5.70243" y2="6.64023" gradientUnits="userSpaceOnUse">
<stop stop-color="#3376C3"/>
<stop offset="1" stop-color="#B3D5FC"/>
</linearGradient>
<linearGradient id="paint20_linear_1_5128" x1="10.2327" y1="19.8872" x2="10.2327" y2="9.65569" gradientUnits="userSpaceOnUse">
<stop stop-color="#054A86"/>
<stop offset="1" stop-color="#0C6ECA"/>
</linearGradient>
<linearGradient id="paint21_linear_1_5128" x1="21.5266" y1="22.3074" x2="21.5266" y2="13.7186" gradientUnits="userSpaceOnUse">
<stop stop-color="#054A86"/>
<stop offset="1" stop-color="#0C6ECA"/>
</linearGradient>
<linearGradient id="paint22_linear_1_5128" x1="19.631" y1="24.1275" x2="20.3912" y2="16.6683" gradientUnits="userSpaceOnUse">
<stop stop-color="#3376C3"/>
<stop offset="1" stop-color="#93BBE9"/>
</linearGradient>
<linearGradient id="paint23_linear_1_5128" x1="12.8196" y1="13.2702" x2="12.8196" y2="20.5419" gradientUnits="userSpaceOnUse">
<stop stop-color="#DDEFFF"/>
<stop offset="1" stop-color="#EBF6FF"/>
</linearGradient>
<linearGradient id="paint24_linear_1_5128" x1="2.67652" y1="14.9578" x2="17.3483" y2="24.3121" gradientUnits="userSpaceOnUse">
<stop stop-color="#CAD7E2"/>
<stop offset="1" stop-color="#EBF6FF"/>
</linearGradient>
<linearGradient id="paint25_linear_1_5128" x1="21.8673" y1="14.8624" x2="21.8673" y2="20.3891" gradientUnits="userSpaceOnUse">
<stop stop-color="#F3F9FF"/>
<stop offset="1" stop-color="#EBF6FF"/>
</linearGradient>
<linearGradient id="paint26_linear_1_5128" x1="12.6323" y1="15.9659" x2="12.6323" y2="18.9985" gradientUnits="userSpaceOnUse">
<stop stop-color="#DDEFFF"/>
<stop offset="1" stop-color="#EBF6FF"/>
</linearGradient>
</defs>
</svg>
