<svg width="24" height="24" viewBox="0 0 24 24" fill="none" xmlns="http://www.w3.org/2000/svg">
<g clip-path="url(#clip0_1_9080)">
<path d="M12.8035 20.1471L11.2418 19.2395L11.2472 21.1388L12.8089 22.0463L12.8035 20.1471Z" fill="#0277BD"/>
<path d="M9.36218 18.7446L10.9238 19.6521C11.4583 19.9627 12.0809 20.1444 12.806 20.1463L11.2443 19.2387C10.5192 19.2368 9.89666 19.0552 9.36218 18.7446Z" fill="#0277BD"/>
<path d="M17.8387 5.24787L16.277 4.34035C16.3038 4.32473 16.2282 13.4595 11.2424 19.239L12.8042 20.1466C17.7898 14.3671 17.8655 5.23224 17.8387 5.24787Z" fill="#0277BD"/>
<path d="M11.3544 3.94833L12.916 4.85585C13.5356 5.21599 15.8484 6.39762 17.8672 5.23189L16.3055 4.32437C14.2867 5.49006 11.974 4.30843 11.3544 3.94833Z" fill="#4FC3F7"/>
<path d="M12.7588 4.76299L11.1971 3.85547L11.2407 19.2391L12.8024 20.1466L12.7588 4.76299Z" fill="#4FC3F7"/>
<path d="M11.353 3.95007L12.9148 4.85763C12.8295 4.80803 12.7757 4.77384 12.7588 4.76299L11.1971 3.85547C11.2141 3.86627 11.2677 3.90051 11.353 3.95007Z" fill="#0277BD"/>
<path d="M11.3845 2.07378L12.9462 2.98129C13.7207 3.43139 16.6023 4.90272 19.1196 3.44907L17.5579 2.54155C15.0406 3.99515 12.1591 2.52383 11.3845 2.07378Z" fill="url(#paint0_linear_1_9080)"/>
<path d="M12.7574 2.8642L11.1957 1.95659L11.2011 3.85587L12.7627 4.76339L12.7574 2.8642Z" fill="#0277BD"/>
<path d="M9.42364 18.7586L10.9853 19.6662C7.76919 17.7971 7.6782 11.1136 7.70124 11.1005C9.96718 9.79233 12.6204 5.01447 12.7601 4.76299L11.1985 3.85547C11.0588 4.10686 8.40549 8.88472 6.1396 10.1929C6.11656 10.2061 6.2075 16.8897 9.42364 18.7586Z" fill="#4FC3F7"/>
<path d="M12.7625 4.76401C12.9392 4.87649 15.5884 6.54579 17.8641 5.23178C17.8602 5.6937 17.7859 14.3643 12.8045 20.1419L12.8055 20.1458L12.8026 20.1449V20.1458L12.8016 20.1449C7.81866 20.1269 7.67723 11.1692 7.70296 11.0999C9.95121 9.80192 12.5813 5.08804 12.7586 4.76889V4.76205L12.7606 4.76303L12.7625 4.76205V4.76401Z" fill="url(#paint1_linear_1_9080)"/>
<path d="M8.98189 20.5391L10.5435 21.4467C6.53242 19.1157 6.41854 10.7837 6.44845 10.7665C9.27417 9.13517 12.5819 3.17768 12.756 2.86415L11.1943 1.95654C11.0202 2.27008 7.71249 8.22761 4.88681 9.85907C4.8569 9.87617 4.97083 18.2082 8.98189 20.5391Z" fill="url(#paint2_linear_1_9080)"/>
<path d="M12.7558 2.86362C12.9329 2.97658 16.2624 5.0998 19.122 3.44858C19.1173 4.01921 19.025 14.8333 12.8105 22.0423L12.8115 22.0453L12.8095 22.0443V22.0453L12.8086 22.0443C6.57435 22.022 6.41445 10.7876 6.44918 10.766C9.27366 9.13527 12.579 3.18202 12.7558 2.86362ZM12.7607 4.76303C12.6164 5.02294 9.96719 9.7932 7.67672 11.1156C7.68311 11.5664 7.80362 20.1315 12.8047 20.1458C17.79 14.3663 17.8656 5.23178 17.8388 5.24741C15.5729 6.55549 12.9013 4.85267 12.7607 4.76303Z" fill="url(#paint3_linear_1_9080)"/>
<path d="M18.4624 9.05766C18.468 9.46623 18.4302 9.89477 18.402 10.3174C18.9868 11.6845 19.26 14.6352 16.3336 16.6526C12.0744 19.5888 6.06474 18.1106 4.25958 17.0637C0.474614 14.8688 3.30449 10.8529 5.14557 9.44497C5.19956 9.36991 5.68783 8.78407 5.68783 8.78407C5.32055 8.97181 4.77534 9.22412 4.44574 9.44497C2.43217 10.7941 1.17948 12.4596 1.1836 14.4396C1.1876 16.4138 2.32695 18.2459 4.32835 19.4825C6.07096 20.5591 8.37997 21.1566 10.8477 21.1566C13.3579 21.1566 15.7924 20.5389 17.6902 19.4043C19.9289 18.0655 21.2458 16.0773 21.2731 13.9624C21.2978 12.0625 20.277 10.3038 18.4624 9.05766Z" fill="#F7FBFF"/>
<path d="M18.4619 9.03054C18.4673 9.4327 18.4303 9.85502 18.405 10.2723C18.9816 11.6089 19.2351 14.4622 16.3174 16.4198C12.0524 19.2815 6.04536 17.8505 4.2423 16.8342C0.424679 14.6825 3.30121 10.7738 5.1455 9.44494L5.68776 8.78404C5.38336 8.82442 5.04041 8.92093 4.3629 9.36223C2.34671 10.6769 1.17175 12.3591 1.17175 14.2852C1.17169 16.2056 2.30725 17.9867 4.30616 19.1874C6.04674 20.2328 8.35464 20.8114 10.8227 20.8085C13.3331 20.8055 15.769 20.2016 17.6689 19.0954C19.9103 17.7903 21.2308 15.8545 21.262 13.7971C21.2901 11.9493 20.2731 10.2404 18.4619 9.03054Z" fill="url(#paint4_linear_1_9080)"/>
</g>
<defs>
<linearGradient id="paint0_linear_1_9080" x1="15.2521" y1="3.97656" x2="15.2521" y2="2.4316" gradientUnits="userSpaceOnUse">
<stop stop-color="#0D3354"/>
<stop offset="1" stop-color="#2574A4"/>
</linearGradient>
<linearGradient id="paint1_linear_1_9080" x1="10.3613" y1="21.9717" x2="11.8156" y2="11.357" gradientUnits="userSpaceOnUse">
<stop stop-color="#4B85B7"/>
<stop offset="1" stop-color="#9FC7E8"/>
</linearGradient>
<linearGradient id="paint2_linear_1_9080" x1="8.81991" y1="20.4841" x2="8.81991" y2="5.44069" gradientUnits="userSpaceOnUse">
<stop stop-color="#0D3354"/>
<stop offset="1" stop-color="#2574A4"/>
</linearGradient>
<linearGradient id="paint3_linear_1_9080" x1="14.117" y1="4.54114" x2="12.7842" y2="22.0453" gradientUnits="userSpaceOnUse">
<stop offset="0.132116" stop-color="#4DA1DF"/>
<stop offset="1" stop-color="#0F3E61"/>
</linearGradient>
<linearGradient id="paint4_linear_1_9080" x1="18.5856" y1="11.925" x2="1.91013" y2="12.6234" gradientUnits="userSpaceOnUse">
<stop stop-color="#ADDAFF"/>
<stop offset="1" stop-color="#7DB0DB"/>
</linearGradient>
<clipPath id="clip0_1_9080">
<rect width="24" height="24" fill="white" transform="matrix(-1 0 0 1 24 0)"/>
</clipPath>
</defs>
</svg>
