<svg width="14" height="14" viewBox="0 0 14 14" fill="none" xmlns="http://www.w3.org/2000/svg">
<path fill-rule="evenodd" clip-rule="evenodd" d="M2.0388 1.26355C1.83321 1.26355 1.63603 1.34522 1.49066 1.49059C1.34528 1.63597 1.26361 1.83315 1.26361 2.03874V7.62014C1.26361 7.82573 1.34528 8.0229 1.49066 8.16828C1.63603 8.31366 1.83321 8.39533 2.0388 8.39533H2.65896C2.91583 8.39533 3.12407 8.60357 3.12407 8.86045C3.12407 9.11732 2.91583 9.32556 2.65896 9.32556H2.0388C1.58649 9.32556 1.15271 9.14588 0.832882 8.82605C0.513052 8.50622 0.333374 8.07244 0.333374 7.62014V2.03874C0.333374 1.58643 0.513052 1.15265 0.832882 0.832821C1.15271 0.512991 1.58649 0.333313 2.0388 0.333313H7.6202C8.0725 0.333313 8.50629 0.512991 8.82611 0.832821C9.14594 1.15265 9.32562 1.58643 9.32562 2.03874V2.65889C9.32562 2.91577 9.11738 3.12401 8.86051 3.12401C8.60363 3.12401 8.39539 2.91577 8.39539 2.65889V2.03874C8.39539 1.83315 8.31372 1.63597 8.16834 1.49059C8.02296 1.34522 7.82579 1.26355 7.6202 1.26355H2.0388ZM6.37989 5.60463C5.95176 5.60463 5.60469 5.9517 5.60469 6.37983V11.9612C5.60469 12.3893 5.95176 12.7364 6.37989 12.7364H11.9613C12.3894 12.7364 12.7365 12.3893 12.7365 11.9612V6.37983C12.7365 5.9517 12.3894 5.60463 11.9613 5.60463H6.37989ZM4.67446 6.37983C4.67446 5.43794 5.438 4.6744 6.37989 4.6744H11.9613C12.9032 4.6744 13.6667 5.43794 13.6667 6.37983V11.9612C13.6667 12.9031 12.9032 13.6666 11.9613 13.6666H6.37989C5.438 13.6666 4.67446 12.9031 4.67446 11.9612V6.37983Z" fill="#005DAC"/>
</svg>
