<svg width="18" height="18" viewBox="0 0 18 18" fill="none" xmlns="http://www.w3.org/2000/svg">
<path fill-rule="evenodd" clip-rule="evenodd" d="M8.99996 0.666626C9.35399 0.666626 9.64099 0.953623 9.64099 1.30765V10.0165L12.8202 6.83728C13.0705 6.58695 13.4764 6.58695 13.7267 6.83728C13.9771 7.08762 13.9771 7.4935 13.7267 7.74383L9.45323 12.0173C9.2029 12.2677 8.79702 12.2677 8.54669 12.0173L4.27318 7.74383C4.02285 7.4935 4.02285 7.08762 4.27318 6.83728C4.52352 6.58695 4.92939 6.58695 5.17973 6.83728L8.35893 10.0165V1.30765C8.35893 0.953623 8.64593 0.666626 8.99996 0.666626ZM1.30765 10.923C1.66168 10.923 1.94868 11.21 1.94868 11.5641V14.9829C1.94868 15.2662 2.06124 15.538 2.2616 15.7383C2.46196 15.9387 2.7337 16.0512 3.01705 16.0512H14.9829C15.2662 16.0512 15.538 15.9387 15.7383 15.7383C15.9387 15.538 16.0512 15.2662 16.0512 14.9829V11.5641C16.0512 11.21 16.3382 10.923 16.6923 10.923C17.0463 10.923 17.3333 11.21 17.3333 11.5641V14.9829C17.3333 15.6062 17.0857 16.2041 16.6449 16.6449C16.2041 17.0857 15.6062 17.3333 14.9829 17.3333H3.01705C2.39368 17.3333 1.79584 17.0857 1.35505 16.6449C0.91426 16.2041 0.666626 15.6062 0.666626 14.9829V11.5641C0.666626 11.21 0.953623 10.923 1.30765 10.923Z" fill="#005DAC"/>
</svg>
