<svg width="40" height="23" viewBox="0 0 40 23" fill="none" xmlns="http://www.w3.org/2000/svg">
<path d="M8.21046 17.7759L6.89639 13.8029H6.83375L5.45703 17.7759H8.21046ZM4.91476 10.1109C4.9566 9.99842 5.03981 9.9234 5.18589 9.9234H8.58585C8.73193 9.9234 8.81538 9.99842 8.85698 10.1109L13.6545 22.4799C13.6963 22.5923 13.6339 22.6674 13.5086 22.6674H10.0668C9.92096 22.6674 9.83751 22.5923 9.79567 22.4799L9.12812 20.5121H4.51834L3.85102 22.4799C3.80918 22.5923 3.72573 22.6674 3.57988 22.6674H0.158894C0.033843 22.6674 -0.0287981 22.5923 0.0128085 22.4799L4.91476 10.1109Z" fill="#005DAC"/>
<path d="M13.7721 19.6264C13.4381 18.7937 13.3269 18.1239 13.3269 16.2955C13.3269 14.4674 13.4381 13.7975 13.7721 12.9648C14.5733 10.9554 16.5315 9.92359 19.2468 9.92359C22.3179 9.92359 24.6548 11.4441 24.9217 13.9423C24.9217 14.0509 24.8325 14.1233 24.6991 14.1233H21.3831C21.2497 14.1233 21.1607 14.0509 21.1161 13.9423C20.8713 13.2363 20.2928 12.7655 19.3136 12.7655C18.3789 12.7655 17.7779 13.1456 17.5109 13.8338C17.3551 14.2138 17.2883 14.5939 17.2883 16.2955C17.2883 17.997 17.3551 18.3772 17.5109 18.7576C17.7779 19.4451 18.3789 19.8255 19.3136 19.8255C20.2928 19.8255 20.8713 19.3729 21.1383 18.6487C21.1829 18.5404 21.2497 18.4678 21.3831 18.4678H24.7213C24.8549 18.4678 24.9439 18.5404 24.9439 18.6487C24.6769 21.1469 22.3179 22.6674 19.2468 22.6674C16.5315 22.6674 14.5733 21.6357 13.7721 19.6264Z" fill="#005DAC"/>
<path d="M26.2019 10.1109C26.2019 9.99842 26.2939 9.9234 26.4324 9.9234H36.6851C36.8234 9.9234 36.9156 9.99842 36.9156 10.1109V12.5284C36.9156 12.641 36.8234 12.7158 36.6851 12.7158H30.3952C30.3029 12.7158 30.2569 12.7534 30.2569 12.8283V14.7586C30.2569 14.8336 30.3029 14.8711 30.3952 14.8711H35.5562C35.6944 14.8711 35.7867 14.9461 35.7867 15.0585V17.4198C35.7867 17.5324 35.6944 17.6071 35.5562 17.6071H30.3952C30.3029 17.6071 30.2569 17.6447 30.2569 17.7197V19.7625C30.2569 19.8375 30.3029 19.8749 30.3952 19.8749H36.6851C36.8234 19.8749 36.9156 19.95 36.9156 20.0622V22.4799C36.9156 22.5923 36.8234 22.6674 36.6851 22.6674H26.4324C26.2939 22.6674 26.2019 22.5923 26.2019 22.4799V10.1109Z" fill="#005DAC"/>
<path d="M38.8695 2.87023L36.9307 8.98585L26.1456 9.02985L23.9009 2.92024C23.9009 2.92024 26.9224 4.99106 28.4381 6.05655C29.4193 4.36346 30.3843 2.69538 31.3762 0.980288C32.3872 2.68203 33.3765 4.34861 34.3788 6.03568C35.8713 4.96342 38.8695 2.87023 38.8695 2.87023Z" fill="#005DAC"/>
<path d="M33.5769 3.79775L34.5445 5.43143L36.2272 4.26365L35.2971 2.10485L33.5769 3.79775Z" fill="#005DAC"/>
<path d="M39.6588 2.85671C39.6588 3.21112 39.3054 3.4986 38.8697 3.4986C38.434 3.4986 38.0806 3.21112 38.0806 2.85671C38.0806 2.5023 38.434 2.21482 38.8697 2.21482C39.3054 2.21482 39.6588 2.5023 39.6588 2.85671Z" fill="#F37820"/>
<path d="M36.0784 2.09558C36.0784 2.43908 35.736 2.71735 35.314 2.71735C34.8916 2.71735 34.5493 2.43908 34.5493 2.09558C34.5493 1.75207 34.8916 1.4738 35.314 1.4738C35.736 1.4738 36.0784 1.75207 36.0784 2.09558Z" fill="#F37820"/>
<path d="M29.3187 3.87123L28.3234 5.55173L26.5925 4.35049L27.5492 2.12982L29.3187 3.87123Z" fill="#005DAC"/>
<path d="M26.7603 2.12148C26.7603 2.47476 27.1123 2.76111 27.5466 2.76111C27.9809 2.76111 28.3332 2.47476 28.3332 2.12148C28.3332 1.76819 27.9809 1.48184 27.5466 1.48184C27.1123 1.48184 26.7603 1.76819 26.7603 2.12148Z" fill="#F37820"/>
<path d="M24.6967 2.91454C24.6967 3.26895 24.3433 3.55643 23.9075 3.55643C23.4718 3.55643 23.1184 3.26895 23.1184 2.91454C23.1184 2.56013 23.4718 2.27265 23.9075 2.27265C24.3433 2.27265 24.6967 2.56013 24.6967 2.91454Z" fill="#F37820"/>
<path d="M24.9213 2.90916C24.9213 3.36492 24.4669 3.73456 23.9066 3.73456C23.3461 3.73456 22.8918 3.36492 22.8918 2.90916C22.8918 2.45341 23.3461 2.08377 23.9066 2.08377C24.4669 2.08377 24.9213 2.45341 24.9213 2.90916Z" fill="#F37820"/>
<path d="M32.5907 0.974306C32.5907 1.51241 32.0544 1.94861 31.3929 1.94861C30.7316 1.94861 30.1953 1.51241 30.1953 0.974306C30.1953 0.436202 30.7316 3.57628e-06 31.3929 3.57628e-06C32.0544 3.57628e-06 32.5907 0.436202 32.5907 0.974306Z" fill="#F37820"/>
</svg>
