<svg width="84" height="23" viewBox="0 0 84 23" fill="none" xmlns="http://www.w3.org/2000/svg">
<path d="M83.318 0.404266H0V-4.77731e-05H83.318V0.404266Z" fill="#E98024"/>
<path d="M11.7861 11.9865C11.7373 11.1304 11.4429 10.456 10.9041 9.96278C10.3647 9.46951 9.65431 9.22261 8.77225 9.22261C7.91463 9.22261 7.20087 9.47167 6.63153 9.9714C6.06163 10.4706 5.7217 11.1428 5.61116 11.9865H11.7861ZM12.1722 9.14229C12.9437 10.0043 13.3297 11.2016 13.3297 12.7358C13.3297 12.9736 13.3236 13.152 13.3114 13.2706H5.63005C5.76447 14.1148 6.12884 14.7865 6.72318 15.2862C7.31751 15.7854 8.04905 16.0356 8.91944 16.0356C9.49489 16.0356 10.0309 15.9342 10.5275 15.7321C11.0235 15.5299 11.4556 15.2447 11.8228 14.876L12.7604 15.821C12.2827 16.3208 11.7062 16.7073 11.0329 16.9806C10.3586 17.2539 9.61098 17.3908 8.79058 17.3908C7.8352 17.3908 6.98646 17.1919 6.24549 16.7935C5.50396 16.3951 4.92795 15.8334 4.51803 15.1078C4.10755 14.3827 3.90259 13.5563 3.90259 12.6286C3.90259 11.7013 4.10755 10.8776 4.51803 10.1585C4.92795 9.43932 5.50118 8.87436 6.23605 8.46412C6.97147 8.05387 7.8102 7.84902 8.75392 7.84902C10.2609 7.84902 11.4001 8.28029 12.1722 9.14229Z" fill="#056AB5"/>
<path d="M11.7861 11.9865C11.7373 11.1304 11.4429 10.456 10.9041 9.96278C10.3647 9.46951 9.65431 9.22261 8.77225 9.22261C7.91463 9.22261 7.20087 9.47167 6.63153 9.9714C6.06163 10.4706 5.7217 11.1428 5.61116 11.9865H11.7861ZM12.1722 9.14229C12.9437 10.0043 13.3297 11.2016 13.3297 12.7358C13.3297 12.9736 13.3236 13.152 13.3114 13.2706H5.63005C5.76447 14.1148 6.12884 14.7865 6.72318 15.2862C7.31751 15.7854 8.04905 16.0356 8.91944 16.0356C9.49489 16.0356 10.0309 15.9342 10.5275 15.7321C11.0235 15.5299 11.4556 15.2447 11.8228 14.876L12.7604 15.821C12.2827 16.3208 11.7062 16.7073 11.0329 16.9806C10.3586 17.2539 9.61098 17.3908 8.79058 17.3908C7.8352 17.3908 6.98646 17.1919 6.24549 16.7935C5.50396 16.3951 4.92795 15.8334 4.51803 15.1078C4.10755 14.3827 3.90259 13.5563 3.90259 12.6286C3.90259 11.7013 4.10755 10.8776 4.51803 10.1585C4.92795 9.43932 5.50118 8.87436 6.23605 8.46412C6.97147 8.05387 7.8102 7.84902 8.75392 7.84902C10.2609 7.84902 11.4001 8.28029 12.1722 9.14229Z" stroke="#056AB5" stroke-width="0.16548" stroke-miterlimit="10"/>
<path d="M11.6514 4.8603H21.704V6.43011H17.5503V17.3455H15.7862V6.43011H11.6514V4.8603Z" fill="#056AB5"/>
<path d="M11.6514 4.8603H21.704V6.43011H17.5503V17.3455H15.7862V6.43011H11.6514V4.8603Z" stroke="#056AB5" stroke-width="0.16548" stroke-miterlimit="10"/>
<path d="M42.6092 14.9512C43.2646 15.5997 44.1678 15.9237 45.3198 15.9237C46.4596 15.9237 47.3533 15.5997 48.0026 14.9512C48.6519 14.3032 48.9769 13.4024 48.9769 12.2488V4.86547H50.7415V12.2488C50.7415 13.8784 50.26 15.1566 49.2985 16.0844C48.337 17.0111 47.0106 17.4752 45.3198 17.4752C43.6162 17.4752 42.2809 17.0111 41.3133 16.0844C40.3451 15.1566 39.8613 13.8784 39.8613 12.2488V4.86547H41.6254V12.2488C41.6254 13.4024 41.9532 14.3032 42.6092 14.9512Z" fill="#056AB5"/>
<path d="M42.6092 14.9512C43.2646 15.5997 44.1678 15.9237 45.3198 15.9237C46.4596 15.9237 47.3533 15.5997 48.0026 14.9512C48.6519 14.3032 48.9769 13.4024 48.9769 12.2488V4.86547H50.7415V12.2488C50.7415 13.8784 50.26 15.1566 49.2985 16.0844C48.337 17.0111 47.0106 17.4752 45.3198 17.4752C43.6162 17.4752 42.2809 17.0111 41.3133 16.0844C40.3451 15.1566 39.8613 13.8784 39.8613 12.2488V4.86547H41.6254V12.2488C41.6254 13.4024 41.9532 14.3032 42.6092 14.9512Z" stroke="#056AB5" stroke-width="0.16548" stroke-miterlimit="10"/>
<path d="M60.6516 6.6935C60.0023 6.41426 59.3347 6.2741 58.6487 6.2741C57.7422 6.2741 56.909 6.48865 56.1497 6.91669C55.3893 7.34472 54.7894 7.92424 54.3478 8.65524C53.9068 9.38678 53.6868 10.1922 53.6868 11.072C53.6868 11.9399 53.9068 12.7426 54.3478 13.4795C54.7894 14.2175 55.3893 14.7997 56.1497 15.2278C56.909 15.6558 57.7422 15.8698 58.6487 15.8698C59.3219 15.8698 59.984 15.7361 60.6333 15.4687C61.2826 15.2014 61.8586 14.8353 62.3608 14.3717L63.4267 15.4957C62.7774 16.1135 62.0236 16.5987 61.1665 16.9491C60.3089 17.2995 59.4385 17.4752 58.557 17.4752C57.3311 17.4752 56.2102 17.1927 55.1938 16.6278C54.1767 16.0628 53.3741 15.2935 52.7864 14.3178C52.1982 13.3431 51.9038 12.2666 51.9038 11.0897C51.9038 9.92478 52.201 8.85793 52.7953 7.88866C53.3896 6.91938 54.2012 6.1555 55.2304 5.59647C56.2597 5.03797 57.3928 4.75819 58.6298 4.75819C59.5246 4.75819 60.3911 4.92153 61.2304 5.24875C62.0697 5.57598 62.7951 6.03636 63.4084 6.63097L62.3608 7.8617C61.8703 7.36251 61.301 6.97329 60.6516 6.6935Z" fill="#056AB5"/>
<path d="M60.6516 6.6935C60.0023 6.41426 59.3347 6.2741 58.6487 6.2741C57.7422 6.2741 56.909 6.48865 56.1497 6.91669C55.3893 7.34472 54.7894 7.92424 54.3478 8.65524C53.9068 9.38678 53.6868 10.1922 53.6868 11.072C53.6868 11.9399 53.9068 12.7426 54.3478 13.4795C54.7894 14.2175 55.3893 14.7997 56.1497 15.2278C56.909 15.6558 57.7422 15.8698 58.6487 15.8698C59.3219 15.8698 59.984 15.7361 60.6333 15.4687C61.2826 15.2014 61.8586 14.8353 62.3608 14.3717L63.4267 15.4957C62.7774 16.1135 62.0236 16.5987 61.1665 16.9491C60.3089 17.2995 59.4385 17.4752 58.557 17.4752C57.3311 17.4752 56.2102 17.1927 55.1938 16.6278C54.1767 16.0628 53.3741 15.2935 52.7864 14.3178C52.1982 13.3431 51.9038 12.2666 51.9038 11.0897C51.9038 9.92478 52.201 8.85793 52.7953 7.88866C53.3896 6.91938 54.2012 6.1555 55.2304 5.59647C56.2597 5.03797 57.3928 4.75819 58.6298 4.75819C59.5246 4.75819 60.3911 4.92153 61.2304 5.24875C62.0697 5.57598 62.7951 6.03636 63.4084 6.63097L62.3608 7.8617C61.8703 7.36251 61.301 6.97329 60.6516 6.6935Z" stroke="#056AB5" stroke-width="0.16548" stroke-miterlimit="10"/>
<path d="M64.7854 4.8603H66.5495V10.4253H73.9004V4.8603H75.6834V17.3455H73.9004V11.9768H66.5495V17.3455H64.7854V4.8603Z" fill="#056AB5"/>
<path d="M64.7854 4.8603H66.5495V10.4253H73.9004V4.8603H75.6834V17.3455H73.9004V11.9768H66.5495V17.3455H64.7854V4.8603Z" stroke="#056AB5" stroke-width="0.16548" stroke-miterlimit="10"/>
<mask id="mask0_1_9116" style="mask-type:luminance" maskUnits="userSpaceOnUse" x="21" y="2" width="18" height="18">
<path d="M21.6177 10.9491C21.6177 15.5022 25.4209 19.1933 30.1122 19.1933C34.8036 19.1933 38.6062 15.5022 38.6062 10.9491C38.6062 6.39652 34.8036 2.70486 30.1122 2.70486C25.4209 2.70486 21.6177 6.39652 21.6177 10.9491Z" fill="white"/>
</mask>
<g mask="url(#mask0_1_9116)">
<path d="M22.8958 15.0192C22.8958 13.6186 23.7134 12.4008 24.9082 11.7879C24.8632 11.5178 24.8332 11.2423 24.8332 10.9599C24.8332 8.13505 27.1928 5.84502 30.1034 5.84502C33.0139 5.84502 35.3729 8.13505 35.3729 10.9599C35.3729 11.2423 35.343 11.5178 35.298 11.7874C36.4933 12.4008 37.3115 13.6186 37.3115 15.0192V15.3205C38.1258 14.0553 38.5974 12.5615 38.5974 10.9599C38.5974 6.40674 34.7947 2.71562 30.1034 2.71562C25.412 2.71562 21.6094 6.40674 21.6094 10.9599C21.6094 12.5615 22.0815 14.0553 22.8958 15.3205V15.0192Z" fill="#E98024"/>
<path d="M33.1794 13.1955C34.0353 13.1955 34.7296 12.5222 34.7296 11.6915C34.7296 10.8607 34.0353 10.1874 33.1794 10.1874C32.3234 10.1874 31.6296 10.8607 31.6296 11.6915C31.6296 12.5222 32.3234 13.1955 33.1794 13.1955Z" fill="#056AB5"/>
<path d="M27.0237 13.1955C27.8796 13.1955 28.5734 12.5222 28.5734 11.6915C28.5734 10.8607 27.8796 10.1874 27.0237 10.1874C26.1677 10.1874 25.4734 10.8607 25.4734 11.6915C25.4734 12.5222 26.1677 13.1955 27.0237 13.1955Z" fill="#056AB5"/>
<path d="M28.3146 13.6066C27.9585 13.8157 27.5408 13.936 27.0954 13.936C26.19 13.936 25.379 13.4368 24.9819 12.6675C24.207 13.2583 23.7065 14.1737 23.7065 15.2023V24.8783H26.8526V16.778C26.8526 15.7009 27.4147 14.7521 28.2685 14.1866C28.264 14.137 28.2529 14.0901 28.2529 14.0395C28.2529 13.8896 28.2785 13.7462 28.3146 13.6066Z" fill="#056AB5"/>
<path d="M35.209 12.6718C34.8102 13.4384 34.0004 13.936 33.0967 13.936C32.6512 13.936 32.234 13.8157 31.8774 13.6066C31.9141 13.7462 31.9385 13.8896 31.9385 14.04C31.9385 14.0901 31.9274 14.1376 31.9235 14.1866C32.7767 14.7521 33.3394 15.7009 33.3394 16.778V24.8783H36.4794V15.2023C36.4794 14.1764 35.9806 13.2626 35.209 12.6718Z" fill="#056AB5"/>
<path d="M30.1073 15.8217C29.3963 15.8217 28.7842 15.4227 28.4792 14.8475C27.9399 15.2944 27.5972 15.9575 27.5972 16.6977V23.9408H32.6174V16.6977C32.6174 15.9575 32.2746 15.2944 31.7353 14.8475C31.4304 15.4227 30.8194 15.8217 30.1073 15.8217Z" fill="#056AB5"/>
<path d="M30.0979 15.1549C30.7411 15.1549 31.2627 14.6487 31.2627 14.0244C31.2627 13.4002 30.7411 12.894 30.0979 12.894C29.4541 12.894 28.9331 13.4002 28.9331 14.0244C28.9331 14.6487 29.4541 15.1549 30.0979 15.1549Z" fill="#056AB5"/>
</g>
<mask id="mask1_1_9116" style="mask-type:luminance" maskUnits="userSpaceOnUse" x="0" y="0" width="84" height="23">
<path d="M0 0.00333977H83.318V22.2215H0V0.00333977Z" fill="white"/>
</mask>
<g mask="url(#mask1_1_9116)">
<path d="M86.5178 22.2043H-0.00537109V21.8228H86.5178V22.2043Z" fill="#E98024"/>
</g>
</svg>
