<svg width="16" height="20" viewBox="0 0 16 20" fill="none" xmlns="http://www.w3.org/2000/svg">
<path fill-rule="evenodd" clip-rule="evenodd" d="M15.1111 0C15.602 0 16 0.383756 16 0.857143V19.1429C16 19.6162 15.602 20 15.1111 20C14.6202 20 14.2222 19.6162 14.2222 19.1429V0.857143C14.2222 0.383756 14.6202 0 15.1111 0ZM8 6.85714C8.49092 6.85714 8.88889 7.2409 8.88889 7.71429V19.1429C8.88889 19.6162 8.49092 20 8 20C7.50908 20 7.11111 19.6162 7.11111 19.1429V7.71429C7.11111 7.2409 7.50908 6.85714 8 6.85714ZM0.888889 13.7143C1.37981 13.7143 1.77778 14.098 1.77778 14.5714V19.1429C1.77778 19.6162 1.37981 20 0.888889 20C0.397969 20 0 19.6162 0 19.1429V14.5714C0 14.098 0.397969 13.7143 0.888889 13.7143Z" fill="#F58220"/>
</svg>
