<svg width="88" height="100" viewBox="0 0 88 100" fill="none" xmlns="http://www.w3.org/2000/svg">
<path opacity="0.5" d="M174.331 38.5969C192.911 51.6793 203.124 65.7625 199.435 75.9665C193.508 92.3611 153.937 92.5336 111.05 76.3517C68.1637 60.1699 38.2021 33.7615 44.1292 17.367C48.4362 5.45386 70.508 2.10635 98.7078 7.37517" stroke="#74B4EA" stroke-opacity="0.35" stroke-width="0.788561"/>
<path d="M156.268 62.4641C174.848 75.5464 185.062 89.6297 181.373 99.8337C175.446 116.228 135.874 116.401 92.9878 100.219C50.1012 84.0371 20.1396 57.6287 26.0667 41.2342C30.3737 29.321 52.4455 25.9735 80.6453 31.2424" stroke="#74B4EA" stroke-opacity="0.35" stroke-width="0.788561"/>
<path opacity="0.7" d="M189.991 17.9016C208.571 30.9839 218.785 45.0672 215.096 55.2712C209.168 71.6658 169.597 71.8383 126.71 55.6564C83.8239 39.4746 53.8623 13.0662 59.7894 -3.32834C64.0963 -15.2415 86.1681 -18.589 114.368 -13.3201" stroke="#74B4EA" stroke-opacity="0.35" stroke-width="0.788561"/>
</svg>
