<svg width="14" height="20" viewBox="0 0 14 20" fill="none" xmlns="http://www.w3.org/2000/svg">
<path d="M13.6606 4.20482L11.972 3.22993L11.5877 1.58826L9.89564 0.612116L9.89578 0.612891C9.78971 0.546526 9.64788 0.555965 9.49701 0.65293L7.81195 1.73603L6.49731 1.08522C6.29423 0.984678 6.00488 1.15177 5.80181 1.48676L4.48717 3.65558L2.80214 4.51821C2.54185 4.65145 2.30777 5.0134 2.23945 5.38813L1.79739 7.81419L0.385561 9.86072C0.167481 10.1768 0.0780733 10.5954 0.170651 10.8668L0.769995 12.6234L0.170651 15.0722C0.0834193 15.4285 0.157858 15.7288 0.349135 15.8162L0.348803 15.8161L1.90556 16.7149L2.23945 18.1619C2.27049 18.2964 2.33608 18.3882 2.42261 18.4331L2.42202 18.4335L4.11914 19.4129L13.6606 4.20482Z" fill="url(#paint0_linear_1_5881)"/>
<path d="M4.11885 19.4109L3.49905 17.2262L1.90527 16.7128L2.23916 18.1598C2.2702 18.2943 2.33579 18.3861 2.42232 18.431L2.42174 18.4314L4.11885 19.4109Z" fill="url(#paint1_linear_1_5881)"/>
<path d="M0.769977 12.621L0.170634 15.0698C0.0834017 15.4261 0.15784 15.7264 0.349117 15.8138L0.348785 15.8137L1.90554 16.7125L2.47193 13.603L0.769977 12.621Z" fill="url(#paint2_linear_1_5881)"/>
<path d="M11.7025 2.07917L11.5876 1.58826L9.89552 0.612116L9.89567 0.612891C9.7896 0.546526 9.64776 0.555965 9.49689 0.65293L7.81183 1.73603L9.51378 2.71808L11.7025 2.07917Z" fill="url(#paint3_linear_1_5881)"/>
<path d="M5.80127 1.48259L4.48663 3.65137L6.18858 4.63342L9.51332 2.71387L7.81137 1.73182L6.49673 1.08101C6.2937 0.980506 6.00435 1.1476 5.80127 1.48259Z" fill="url(#paint4_linear_1_5881)"/>
<path d="M5.80127 1.48259L4.48663 3.65137L6.18858 4.63342L9.51332 2.71387L7.81137 1.73182L6.49673 1.08101C6.2937 0.980506 6.00435 1.1476 5.80127 1.48259Z" fill="url(#paint5_linear_1_5881)"/>
<path d="M6.18793 4.63827L4.48599 3.65619L2.80096 4.51881C2.54066 4.65206 2.30658 5.014 2.23826 5.38874L1.7962 7.8148L3.49815 8.79684L6.18793 4.63827Z" fill="url(#paint6_linear_1_5881)"/>
<path d="M6.18793 4.63827L4.48599 3.65619L2.80096 4.51881C2.54066 4.65206 2.30658 5.014 2.23826 5.38874L1.7962 7.8148L3.49815 8.79684L6.18793 4.63827Z" fill="url(#paint7_linear_1_5881)"/>
<path d="M0.170667 10.8624L0.770011 12.619L2.47196 13.6011L3.49935 8.79186L1.7974 7.80981L0.385577 9.85634C0.167497 10.1724 0.0780522 10.591 0.170667 10.8624Z" fill="url(#paint8_linear_1_5881)"/>
<path d="M0.170667 10.8624L0.770011 12.619L2.47196 13.6011L3.49935 8.79186L1.7974 7.80981L0.385577 9.85634C0.167497 10.1724 0.0780522 10.591 0.170667 10.8624Z" fill="url(#paint9_linear_1_5881)"/>
<path d="M8.19814 2.0687L9.51274 2.71951L11.1978 1.63637C11.4581 1.46906 11.6922 1.56068 11.7605 1.85659L12.2025 3.7722L13.6144 4.18848C13.8325 4.25278 13.9219 4.56809 13.8293 4.94633L13.2299 7.39506L13.8293 9.15172C13.9219 9.42308 13.8325 9.84162 13.6144 10.1578L12.2026 12.2043L11.7605 14.6304C11.6922 15.0051 11.4581 15.367 11.1978 15.5003L9.51278 16.3629L8.19817 18.5317C7.9951 18.8666 7.70575 19.0337 7.50267 18.9332L6.18804 18.2824L4.50297 19.3655C4.24268 19.5328 4.0086 19.4412 3.94031 19.1453L3.49825 17.2297L2.08643 16.8134C1.86835 16.7491 1.77894 16.4338 1.87152 16.0556L2.47086 13.6068L1.87152 11.8502C1.77894 11.5788 1.86835 11.1603 2.08643 10.8441L3.49825 8.79759L3.94031 6.37154C4.0086 5.9968 4.24271 5.63486 4.50297 5.50161L6.18804 4.63902L7.50267 2.4702C7.70571 2.13525 7.99506 1.96816 8.19814 2.0687Z" fill="url(#paint10_linear_1_5881)"/>
<path d="M11.763 9.86749C11.763 8.43959 4.11945 9.05305 4.11945 10.4809V11.5898H4.11963C4.1231 13.0203 4.81269 13.4243 5.7259 12.8971C6.07351 12.6964 6.38859 12.398 6.6459 12.0265L5.65685 14.5286C5.6324 14.5904 5.62142 14.6516 5.62145 14.7104L5.62142 15.8307H5.62215C5.63845 16.1661 6.01625 16.4143 6.34781 16.2228C6.51557 16.126 6.6456 15.9752 6.7168 15.7951L8.60951 11.0068C8.57098 11.2375 8.55007 12.8206 8.55007 12.8206C8.55007 14.26 9.241 14.6671 10.1565 14.1385C11.0659 13.6135 11.7534 12.4209 11.7625 10.9943H11.763V9.87457H11.7628C11.7628 9.87221 11.763 9.86988 11.763 9.86749Z" fill="url(#paint11_linear_1_5881)"/>
<path d="M11.2128 8.42002C10.9345 8.2697 10.5689 8.31538 10.1578 8.55275C9.24232 9.0813 8.55139 10.2978 8.55139 11.7257C8.55139 12.5428 8.77423 13.0269 9.13425 13.1964C9.13425 13.1964 10.0209 13.7086 10.0209 13.7086L12.1807 8.97799C12.1807 8.97799 11.2129 8.41998 11.2128 8.42002Z" fill="url(#paint12_linear_1_5881)"/>
<path d="M11.1012 10.2495C10.8941 10.3691 10.6868 10.7398 10.6868 11.5811C10.6868 12.4223 10.894 12.5538 11.1012 12.4342C11.3084 12.3145 11.5156 11.9438 11.5156 11.1026C11.5155 10.2614 11.3084 10.1299 11.1012 10.2495Z" fill="url(#paint13_linear_1_5881)"/>
<path d="M11.0986 9.09683C10.1831 9.62538 9.49219 10.8419 9.49219 12.2698C9.49219 13.7091 10.1831 14.1163 11.0986 13.5877C12.0141 13.0592 12.7051 11.8542 12.7051 10.4148C12.7051 8.98692 12.0141 8.56828 11.0986 9.09683ZM11.0986 12.3441C10.9086 12.4538 10.7186 12.3332 10.7186 11.5617C10.7186 10.7902 10.9086 10.4502 11.0986 10.3405C11.2886 10.2308 11.4786 10.3514 11.4786 11.1229C11.4786 11.8944 11.2886 12.2344 11.0986 12.3441Z" fill="url(#paint14_linear_1_5881)"/>
<path d="M6.83109 15.679L10.9782 5.68792L10.0719 5.16202L10.0719 5.16214C9.94556 5.09042 9.78426 5.07833 9.63332 5.16545C9.40278 5.29855 9.22403 5.50575 9.12618 5.75333L5.65854 14.5259C5.56128 14.7719 5.67502 15.0089 5.86475 15.1211L5.86479 15.1211C5.87079 15.1246 5.87677 15.1282 5.88289 15.1316L6.83109 15.679Z" fill="url(#paint15_linear_1_5881)"/>
<path d="M10.5757 5.7059C10.9401 5.49552 11.3655 5.86255 11.2109 6.25381L7.6609 15.2347C7.5897 15.4148 7.45966 15.5655 7.29191 15.6624C6.89549 15.8912 6.43268 15.492 6.60095 15.0663L10.0686 6.29374C10.1664 6.0462 10.3452 5.83903 10.5757 5.7059Z" fill="url(#paint16_linear_1_5881)"/>
<path d="M6.78387 7.17783C6.50554 7.02752 6.13998 7.0732 5.72886 7.31056C4.81336 7.83911 4.12244 9.05561 4.12244 10.4835C4.12244 11.3006 4.34527 11.7847 4.7053 11.9542L5.59196 12.4664L7.75172 7.73581L6.78387 7.17783Z" fill="url(#paint17_linear_1_5881)"/>
<path d="M6.67383 9.01062C6.4667 9.13022 6.25946 9.50094 6.25946 10.3422C6.25946 11.1834 6.46666 11.3149 6.67383 11.1953C6.881 11.0756 7.08817 10.7049 7.08817 9.86373C7.0882 9.02249 6.88104 8.89102 6.67383 9.01062Z" fill="url(#paint18_linear_1_5881)"/>
<path d="M6.67283 7.85135C5.75733 8.3799 5.06641 9.5964 5.06641 11.0243C5.06641 12.4637 5.75733 12.8708 6.67283 12.3423C7.58832 11.8137 8.27929 10.6087 8.27929 9.16934C8.27929 7.74144 7.58836 7.32279 6.67283 7.85135ZM6.67283 11.0986C6.48284 11.2083 6.29278 11.0877 6.29278 10.3162C6.29278 9.54471 6.48284 9.2047 6.67283 9.09501C6.86285 8.98529 7.05284 9.10589 7.05284 9.87741C7.05287 10.6489 6.86285 10.9889 6.67283 11.0986Z" fill="url(#paint19_linear_1_5881)"/>
<defs>
<linearGradient id="paint0_linear_1_5881" x1="6.25205" y1="1.09408" x2="-2.47443" y2="17.7767" gradientUnits="userSpaceOnUse">
<stop offset="0.07045" stop-color="#8CAABF"/>
<stop offset="0.819503" stop-color="#B5D1E5"/>
</linearGradient>
<linearGradient id="paint1_linear_1_5881" x1="4.47528" y1="19.7563" x2="4.20136" y2="17.0035" gradientUnits="userSpaceOnUse">
<stop offset="0.07045" stop-color="#064C8A"/>
<stop offset="0.971203" stop-color="#0B6ECA"/>
</linearGradient>
<linearGradient id="paint2_linear_1_5881" x1="1.19162" y1="12.7348" x2="-0.925969" y2="15.9566" gradientUnits="userSpaceOnUse">
<stop offset="0.07045" stop-color="#075397"/>
<stop offset="0.819503" stop-color="#0B6ECA"/>
</linearGradient>
<linearGradient id="paint3_linear_1_5881" x1="9.57149" y1="0.629961" x2="9.09012" y2="2.9521" gradientUnits="userSpaceOnUse">
<stop offset="0.07045" stop-color="#075397"/>
<stop offset="0.819503" stop-color="#0B6ECA"/>
</linearGradient>
<linearGradient id="paint4_linear_1_5881" x1="5.68281" y1="5.46408" x2="7.97198" y2="1.49911" gradientUnits="userSpaceOnUse">
<stop stop-color="#FF959D"/>
<stop offset="1" stop-color="#FF7A85" stop-opacity="0"/>
</linearGradient>
<linearGradient id="paint5_linear_1_5881" x1="6.99998" y1="1.052" x2="5.27004" y2="4.21413" gradientUnits="userSpaceOnUse">
<stop offset="0.0736813" stop-color="#0B6ECA"/>
<stop offset="0.603851" stop-color="#064C89"/>
<stop offset="1" stop-color="#0961B2"/>
</linearGradient>
<linearGradient id="paint6_linear_1_5881" x1="0.866108" y1="10.7274" x2="4.54545" y2="4.3546" gradientUnits="userSpaceOnUse">
<stop stop-color="#FF959D"/>
<stop offset="1" stop-color="#FF7A85" stop-opacity="0"/>
</linearGradient>
<linearGradient id="paint7_linear_1_5881" x1="2.49563" y1="3.07264" x2="1.03813" y2="7.66304" gradientUnits="userSpaceOnUse">
<stop offset="0.07045" stop-color="#064E8D"/>
<stop offset="0.480878" stop-color="#0B6ECA"/>
<stop offset="1" stop-color="#075498"/>
</linearGradient>
<linearGradient id="paint8_linear_1_5881" x1="0.972201" y1="12.515" x2="2.86561" y2="9.23554" gradientUnits="userSpaceOnUse">
<stop stop-color="#FF959D"/>
<stop offset="1" stop-color="#FF7A85" stop-opacity="0"/>
</linearGradient>
<linearGradient id="paint9_linear_1_5881" x1="1.6563" y1="7.97081" x2="-1.32063" y2="12.5773" gradientUnits="userSpaceOnUse">
<stop offset="0.07045" stop-color="#064F90"/>
<stop offset="0.480878" stop-color="#0B69C0"/>
<stop offset="1" stop-color="#064F8E"/>
</linearGradient>
<linearGradient id="paint10_linear_1_5881" x1="4.98436" y1="21.5725" x2="12.8041" y2="1.43325" gradientUnits="userSpaceOnUse">
<stop stop-color="#3376C3"/>
<stop offset="1" stop-color="#93BBE9"/>
</linearGradient>
<linearGradient id="paint11_linear_1_5881" x1="7.94118" y1="9.55749" x2="7.94118" y2="18.0339" gradientUnits="userSpaceOnUse">
<stop offset="0.0319" stop-color="#075397"/>
<stop offset="1" stop-color="#4C5E73" stop-opacity="0"/>
</linearGradient>
<linearGradient id="paint12_linear_1_5881" x1="10.0145" y1="13.7086" x2="10.7176" y2="8.33331" gradientUnits="userSpaceOnUse">
<stop stop-color="#A5BACA"/>
<stop offset="1" stop-color="#BACEE0"/>
</linearGradient>
<linearGradient id="paint13_linear_1_5881" x1="11.1824" y1="10.7054" x2="10.6704" y2="12.3793" gradientUnits="userSpaceOnUse">
<stop stop-color="#8BA4B6"/>
<stop offset="1" stop-color="#BACEE0"/>
</linearGradient>
<linearGradient id="paint14_linear_1_5881" x1="11.0986" y1="8.87695" x2="11.0986" y2="13.8095" gradientUnits="userSpaceOnUse">
<stop stop-color="#E1F3FF"/>
<stop offset="1" stop-color="#F3FAFF"/>
</linearGradient>
<linearGradient id="paint15_linear_1_5881" x1="7.78187" y1="15.679" x2="9.60232" y2="5.24074" gradientUnits="userSpaceOnUse">
<stop stop-color="#A5BACA"/>
<stop offset="1" stop-color="#BACEE0"/>
</linearGradient>
<linearGradient id="paint16_linear_1_5881" x1="8.90447" y1="5.64453" x2="8.90447" y2="15.7291" gradientUnits="userSpaceOnUse">
<stop stop-color="#E1F3FF"/>
<stop offset="1" stop-color="#F3FAFF"/>
</linearGradient>
<linearGradient id="paint17_linear_1_5881" x1="5.58551" y1="12.4664" x2="6.28864" y2="7.09113" gradientUnits="userSpaceOnUse">
<stop stop-color="#A5BACA"/>
<stop offset="1" stop-color="#BACEE0"/>
</linearGradient>
<linearGradient id="paint18_linear_1_5881" x1="6.755" y1="9.46648" x2="6.24297" y2="11.1404" gradientUnits="userSpaceOnUse">
<stop stop-color="#8BA4B6"/>
<stop offset="1" stop-color="#BACEE0"/>
</linearGradient>
<linearGradient id="paint19_linear_1_5881" x1="6.67285" y1="7.63147" x2="6.67285" y2="12.5641" gradientUnits="userSpaceOnUse">
<stop stop-color="#E1F3FF"/>
<stop offset="1" stop-color="#F3FAFF"/>
</linearGradient>
</defs>
</svg>
