<svg width="14" height="14" viewBox="0 0 14 14" fill="none" xmlns="http://www.w3.org/2000/svg">
<path fill-rule="evenodd" clip-rule="evenodd" d="M8.59445 5.37218C8.39919 5.17692 8.08261 5.17692 7.88734 5.37218L5.37219 7.88733C5.17693 8.08259 5.17693 8.39918 5.37219 8.59444C5.56746 8.7897 5.88404 8.7897 6.0793 8.59444L8.59445 6.07929C8.78971 5.88403 8.78971 5.56744 8.59445 5.37218Z" fill="white"/>
<path fill-rule="evenodd" clip-rule="evenodd" d="M5.294 0.936973C6.24981 0.0608038 7.71684 0.0608041 8.67265 0.936973L9.18696 1.40843C9.40462 1.60796 9.67633 1.7388 9.96803 1.78458L10.6573 1.89273C11.9383 2.09373 12.8529 3.2407 12.7639 4.53426L12.7159 5.23032C12.6956 5.5249 12.7627 5.81891 12.9088 6.07551L13.254 6.68183C13.8955 7.80864 13.5691 9.2389 12.5022 9.97577L11.9281 10.3723C11.6852 10.5401 11.4971 10.7759 11.3876 11.0501L11.1288 11.698C10.6478 12.9021 9.32603 13.5386 8.08472 13.1639L7.41679 12.9623C7.13411 12.877 6.83254 12.877 6.54986 12.9623L5.88193 13.1639C4.64062 13.5386 3.31886 12.9021 2.83787 11.698L2.57905 11.0501C2.46951 10.7759 2.28148 10.5401 2.03853 10.3723L1.46445 9.97577C0.397558 9.2389 0.0711097 7.80864 0.712624 6.68184L1.05782 6.07551C1.20391 5.81891 1.27101 5.5249 1.25073 5.23032L1.20279 4.53426C1.11371 3.2407 2.02839 2.09373 3.30935 1.89273L3.99862 1.78458C4.29032 1.7388 4.56203 1.60796 4.77969 1.40843L5.294 0.936973ZM7.99692 1.67412C7.42344 1.14842 6.54321 1.14842 5.96973 1.67412L5.45542 2.14558C5.09265 2.47812 4.63981 2.6962 4.15363 2.77249L3.46436 2.88064C2.69579 3.00124 2.14698 3.68943 2.20043 4.46556L2.24836 5.16162C2.28217 5.65258 2.17033 6.1426 1.92685 6.57027L1.58166 7.17659C1.19675 7.85268 1.39262 8.71083 2.03275 9.15296L2.60683 9.54946C3.01176 9.82914 3.32514 10.2221 3.5077 10.6791L3.76652 11.327C4.05511 12.0495 4.84817 12.4314 5.59295 12.2066L6.26089 12.005C6.73202 11.8628 7.23464 11.8628 7.70576 12.005L8.3737 12.2066C9.11848 12.4314 9.91154 12.0495 10.2001 11.327L10.459 10.6791C10.6415 10.2221 10.9549 9.82914 11.3598 9.54946L11.9339 9.15295C12.574 8.71083 12.7699 7.85268 12.385 7.17659L12.0398 6.57026C11.7963 6.14259 11.6845 5.65258 11.7183 5.16162L11.7662 4.46556C11.8197 3.68943 11.2709 3.00124 10.5023 2.88064L9.81302 2.77249C9.32684 2.6962 8.874 2.47812 8.51123 2.14558L7.99692 1.67412Z" fill="white"/>
<path fill-rule="evenodd" clip-rule="evenodd" d="M7.92651 8.74098C8.02901 8.74098 8.11211 8.65788 8.11211 8.55538C8.11211 8.45287 8.02901 8.36977 7.92651 8.36977C7.824 8.36977 7.7409 8.45287 7.7409 8.55538C7.7409 8.65788 7.824 8.74098 7.92651 8.74098ZM7.11211 8.55538C7.11211 8.1056 7.47673 7.74098 7.92651 7.74098C8.37628 7.74098 8.7409 8.1056 8.7409 8.55538C8.7409 9.00515 8.37628 9.36977 7.92651 9.36977C7.47673 9.36977 7.11211 9.00515 7.11211 8.55538Z" fill="white"/>
<path fill-rule="evenodd" clip-rule="evenodd" d="M6.04015 5.59698C6.14265 5.59698 6.22575 5.51389 6.22575 5.41138C6.22575 5.30887 6.14265 5.22577 6.04015 5.22577C5.93764 5.22577 5.85454 5.30887 5.85454 5.41138C5.85454 5.51389 5.93764 5.59698 6.04015 5.59698ZM5.22575 5.41138C5.22575 4.9616 5.59037 4.59698 6.04015 4.59698C6.48992 4.59698 6.85454 4.9616 6.85454 5.41138C6.85454 5.86116 6.48992 6.22577 6.04015 6.22577C5.59037 6.22577 5.22575 5.86116 5.22575 5.41138Z" fill="white"/>
</svg>
