<svg width="100" height="84" viewBox="0 0 100 84" fill="none" xmlns="http://www.w3.org/2000/svg">
<path d="M27.8334 23.3326L35.9019 18.6059C35.7635 18.5246 36.1545 66.1015 61.9141 96.2033L53.8451 100.93C28.086 70.8284 27.695 23.2512 27.8334 23.3326Z" fill="#0277BD"/>
<path d="M61.3354 16.5642L53.267 21.2909C50.0657 23.1666 38.1164 29.3209 27.6857 23.2494L35.7544 18.5227C46.1851 24.594 58.1341 18.4397 61.3354 16.5642Z" fill="#4FC3F7"/>
<path d="M54.0796 20.8072L62.1481 16.0806L61.9229 96.2035L53.854 100.93L54.0796 20.8072Z" fill="#4FC3F7"/>
<path d="M61.3426 16.5733L53.2737 21.3002C53.7145 21.0418 53.9922 20.8637 54.0796 20.8072L62.1481 16.0806C62.0607 16.1368 61.7834 16.3152 61.3426 16.5733Z" fill="#0277BD"/>
<path d="M61.1796 6.8009L53.1106 11.5276C49.1092 13.8718 34.2213 21.535 21.2151 13.9639L29.2838 9.23724C42.2897 16.8081 57.1776 9.14493 61.1796 6.8009Z" fill="url(#paint0_linear_990_231)"/>
<path d="M54.0868 10.9177L62.1555 6.19055L62.1276 16.0826L54.0591 20.8093L54.0868 10.9177Z" fill="#0277BD"/>
<path d="M71.3109 93.7012L63.2424 98.4281C79.8589 88.6934 80.329 53.8836 80.21 53.8152C68.5026 47.0017 54.7941 22.117 54.0726 20.8072L62.141 16.0806C62.8625 17.3899 76.5713 42.2746 88.2784 49.0881C88.3974 49.1569 87.9276 83.967 71.3109 93.7012Z" fill="#4FC3F7"/>
<path d="M54.0675 20.8097C54.0661 20.8072 54.0639 20.8052 54.0626 20.8029V20.8116C53.1686 21.3855 39.4701 30.0952 27.7032 23.2462C27.723 25.6246 28.0951 70.8036 53.838 100.905L53.837 100.926C53.8425 100.926 53.8481 100.925 53.8536 100.925V100.926L53.8546 100.925C79.6815 100.835 80.3377 53.8904 80.1993 53.8107C68.5716 47.0431 54.9705 22.4495 54.0792 20.8322V20.8019C54.0756 20.8042 54.0717 20.8069 54.0675 20.8097Z" fill="url(#paint1_linear_990_231)"/>
<path d="M73.5934 102.975L65.525 107.702C86.249 95.5608 86.8374 52.165 86.6829 52.0757C72.0833 43.579 54.9933 12.5504 54.0937 10.9174L62.1624 6.19031C63.062 7.82329 80.152 38.8521 94.7514 47.3493C94.9059 47.4383 94.3173 90.8344 73.5934 102.975Z" fill="url(#paint2_linear_990_231)"/>
<path d="M54.0919 10.9171L54.09 10.9152V10.9181C53.1152 11.5447 35.9501 22.5451 21.2032 13.9611C21.2277 16.9298 21.6974 73.2654 53.8107 110.814L53.8097 110.821C53.8116 110.821 53.8136 110.82 53.8155 110.82V110.821L53.8165 110.82C86.0355 110.712 86.8585 52.1768 86.6788 52.0734C72.114 43.5964 55.0709 12.6951 54.0968 10.9269V10.9142C54.0954 10.9151 54.0934 10.9162 54.0919 10.9171ZM54.0646 20.8087C54.8013 22.1464 68.4996 47.0043 80.338 53.8937C80.305 56.242 79.6817 100.854 53.8429 100.929C28.0839 70.8271 27.6928 23.2508 27.8312 23.3322C39.5179 30.1336 53.2928 21.3046 54.0646 20.8087Z" fill="url(#paint3_linear_990_231)"/>
<defs>
<linearGradient id="paint0_linear_990_231" x1="41.1973" y1="16.7113" x2="41.1973" y2="8.66456" gradientUnits="userSpaceOnUse">
<stop stop-color="#0D3354"/>
<stop offset="1" stop-color="#2574A4"/>
</linearGradient>
<linearGradient id="paint1_linear_990_231" x1="66.4664" y1="110.436" x2="58.8329" y2="55.1671" gradientUnits="userSpaceOnUse">
<stop stop-color="#4B85B7"/>
<stop offset="1" stop-color="#9FC7E8"/>
</linearGradient>
<linearGradient id="paint2_linear_990_231" x1="74.4303" y1="102.688" x2="74.4303" y2="24.3369" gradientUnits="userSpaceOnUse">
<stop stop-color="#0D3354"/>
<stop offset="1" stop-color="#2574A4"/>
</linearGradient>
<linearGradient id="paint3_linear_990_231" x1="47.0622" y1="19.6515" x2="54.0599" y2="110.813" gradientUnits="userSpaceOnUse">
<stop offset="0.132116" stop-color="#4DA1DF"/>
<stop offset="1" stop-color="#0F3E61"/>
</linearGradient>
</defs>
</svg>
