<svg width="40" height="40" viewBox="0 0 40 40" fill="none" xmlns="http://www.w3.org/2000/svg">
<path fill-rule="evenodd" clip-rule="evenodd" d="M13.3009 2.50244C12.848 2.50244 12.4306 2.74736 12.2097 3.14267C11.9888 3.53798 11.9989 4.02185 12.2363 4.40753L14.6839 8.38529C8.87663 11.7419 4.16675 16.1821 4.16675 23.3358C4.16675 28.333 6.3483 31.9266 9.46472 34.2337C12.536 36.5074 16.4588 37.4976 20.0005 37.4976C23.5422 37.4976 27.4649 36.5074 30.5359 34.2337C33.6521 31.9266 35.8334 28.3329 35.8334 23.3358C35.8334 16.1621 31.0979 11.7171 25.2681 8.3571L27.6987 4.4076C27.9361 4.02193 27.9463 3.53804 27.7254 3.14271C27.5045 2.74738 27.0871 2.50244 26.6342 2.50244H13.3009ZM22.6021 7.91911L24.3971 5.00244H15.5377L17.3325 7.91911H22.6021ZM16.1626 10.4191C10.4784 13.6585 6.66675 17.4726 6.66675 23.3358C6.66675 27.505 8.44353 30.3672 10.9522 32.2244C13.5061 34.1151 16.8751 34.9976 20.0005 34.9976C23.1259 34.9976 26.4947 34.1151 29.0483 32.2245C31.5568 30.3673 33.3334 27.5051 33.3334 23.3358C33.3334 17.4725 29.5224 13.6585 23.8383 10.4191H16.1626Z" fill="#DFEFFF"/>
<path d="M24.7083 17.8152C25.0751 17.2303 24.8983 16.4588 24.3135 16.0921C23.7286 15.7253 22.9571 15.9021 22.5904 16.4869L15.2238 28.2333C14.857 28.8182 15.0338 29.5897 15.6187 29.9564C16.2035 30.3232 16.975 30.1464 17.3418 29.5616L24.7083 17.8152Z" fill="#DFEFFF"/>
<path fill-rule="evenodd" clip-rule="evenodd" d="M12.6173 19.3532C12.6173 17.6043 14.035 16.1865 15.7839 16.1865C17.5328 16.1865 18.9506 17.6043 18.9506 19.3532C18.9506 21.1021 17.5328 22.5199 15.7839 22.5199C14.035 22.5199 12.6173 21.1021 12.6173 19.3532ZM15.7839 18.3532C15.2317 18.3532 14.7839 18.8009 14.7839 19.3532C14.7839 19.9055 15.2317 20.3532 15.7839 20.3532C16.3362 20.3532 16.7839 19.9055 16.7839 19.3532C16.7839 18.8009 16.3362 18.3532 15.7839 18.3532Z" fill="#DFEFFF"/>
<path fill-rule="evenodd" clip-rule="evenodd" d="M21.0515 26.5244C21.0515 24.7755 22.4693 23.3577 24.2182 23.3577C25.9671 23.3577 27.3848 24.7755 27.3848 26.5244C27.3848 28.2733 25.9671 29.6911 24.2182 29.6911C22.4693 29.6911 21.0515 28.2733 21.0515 26.5244ZM24.2182 25.5244C23.6659 25.5244 23.2182 25.9721 23.2182 26.5244C23.2182 27.0767 23.6659 27.5244 24.2182 27.5244C24.7705 27.5244 25.2182 27.0767 25.2182 26.5244C25.2182 25.9721 24.7705 25.5244 24.2182 25.5244Z" fill="#DFEFFF"/>
</svg>
