<svg width="17" height="16" viewBox="0 0 17 16" fill="none" xmlns="http://www.w3.org/2000/svg">
<path d="M9.74851 4.07098C9.74851 3.91924 9.6255 3.79623 9.47376 3.79623H6.31967C6.16793 3.79623 6.04492 3.91924 6.04492 4.07098C6.04492 4.22272 6.16793 4.34573 6.31967 4.34573H7.64002C8.09728 4.48603 8.25228 4.81285 8.30261 5.10408H6.51215C6.34524 5.10408 6.20993 5.23939 6.20993 5.4063C6.20993 5.57321 6.34524 5.70852 6.51215 5.70852H8.28591C8.24471 5.86339 8.16556 6.02667 8.02221 6.15728C7.73647 6.41554 7.2413 6.44114 6.5984 6.3752C6.43611 6.36045 6.29618 6.48823 6.29618 6.65119V6.75459C6.29618 6.84641 6.33018 6.93498 6.39162 7.00321L8.05098 8.84598H9.0126L7.13256 6.96982C8.4351 6.96982 8.83273 6.39336 8.91331 5.70852H9.2761C9.44302 5.70852 9.57832 5.57321 9.57832 5.4063C9.57832 5.23939 9.44302 5.10408 9.2761 5.10408H8.90385C8.86018 4.81847 8.74978 4.55785 8.56082 4.34573H9.47376C9.6255 4.34573 9.74851 4.22272 9.74851 4.07098Z" fill="#005DAC"/>
<path d="M7.07039 10.249C7.07039 9.97289 6.84654 9.74903 6.57039 9.74903C6.29425 9.74903 6.07039 9.97289 6.07039 10.249V11.2363C6.07039 11.5125 6.29425 11.7363 6.57039 11.7363H10.8317C11.1078 11.7363 11.3317 11.5125 11.3317 11.2363V10.249C11.3317 9.97289 11.1078 9.74903 10.8317 9.74903C10.5555 9.74903 10.3317 9.97289 10.3317 10.249V10.7363H7.07039V10.249Z" fill="#005DAC"/>
<path fill-rule="evenodd" clip-rule="evenodd" d="M12.5001 6.00001C12.5001 6.71574 12.339 7.39384 12.051 8.00001H13.0963C13.4154 7.52334 13.6014 6.79311 13.6014 6.17646C13.6014 5.27624 13.4121 4.70814 12.809 4.07577C12.5768 3.47567 12.2391 2.92809 11.8187 2.45574C13.5514 2.89463 14.6014 4.30731 14.6014 6.17646C14.6014 6.77121 14.4716 7.49268 14.2388 8.00001H15.0001C15.1479 8.00001 15.2881 8.06541 15.3831 8.17864C15.4781 8.29188 15.5182 8.44134 15.4925 8.5869L14.4925 14.2536C14.4503 14.4925 14.2427 14.6667 14.0001 14.6667H3.66675C3.42413 14.6667 3.21652 14.4925 3.17436 14.2536L2.17436 8.5869C2.14867 8.44134 2.18871 8.29188 2.28371 8.17864C2.37871 8.06541 2.51894 8.00001 2.66675 8.00001H3.61584C3.32788 7.39384 3.16675 6.71574 3.16675 6.00001C3.16675 3.42268 5.25609 1.33334 7.83342 1.33334C10.4107 1.33334 12.5001 3.42268 12.5001 6.00001ZM4.16675 6.00001C4.16675 3.97497 5.80837 2.33334 7.83342 2.33334C9.85846 2.33334 11.5001 3.97497 11.5001 6.00001C11.5001 6.73787 11.2821 7.42482 10.9071 8.00001H4.75973C4.3847 7.42482 4.16675 6.73787 4.16675 6.00001ZM4.08624 13.6667L3.26271 9.00001H14.4041L13.5806 13.6667H4.08624Z" fill="#005DAC"/>
</svg>
