<svg width="14" height="14" viewBox="0 0 14 14" fill="none" xmlns="http://www.w3.org/2000/svg">
<path fill-rule="evenodd" clip-rule="evenodd" d="M4.57039 0.000976562C4.38926 0.000976562 4.22228 0.0989441 4.13392 0.257068C4.04556 0.415191 4.04963 0.608739 4.14456 0.76301L5.12362 2.35412C2.8007 3.69676 0.916748 5.47285 0.916748 8.33431C0.916748 10.3332 1.78937 11.7707 3.03594 12.6935C4.26444 13.603 5.83358 13.999 7.25026 13.999C8.66693 13.999 10.236 13.603 11.4644 12.6935C12.7109 11.7706 13.5834 10.3332 13.5834 8.33431C13.5834 5.46486 11.6892 3.68683 9.35728 2.34284L10.3295 0.76304C10.4245 0.608771 10.4286 0.415215 10.3402 0.257083C10.2518 0.0989509 10.0849 0.000976562 9.90373 0.000976562H4.57039ZM8.2909 2.16764L9.00891 1.00098H5.46514L6.18303 2.16764H8.2909ZM5.71507 3.16764C3.44139 4.46342 1.91675 5.98904 1.91675 8.33431C1.91675 10.002 2.62746 11.1469 3.63094 11.8898C4.65248 12.646 6.00009 12.999 7.25026 12.999C8.50043 12.999 9.84794 12.646 10.8694 11.8898C11.8728 11.1469 12.5834 10.002 12.5834 8.33431C12.5834 5.98901 11.059 4.4634 8.78537 3.16764H5.71507Z" fill="#005DAC"/>
<path d="M9.13338 6.12607C9.28009 5.89212 9.20937 5.58354 8.97543 5.43682C8.74149 5.29011 8.4329 5.36083 8.28619 5.59477L5.33958 10.2933C5.19286 10.5273 5.26358 10.8359 5.49752 10.9826C5.73146 11.1293 6.04005 11.0586 6.18676 10.8246L9.13338 6.12607Z" fill="#005DAC"/>
<path fill-rule="evenodd" clip-rule="evenodd" d="M4.29696 6.74128C4.29696 6.04172 4.86406 5.47461 5.56362 5.47461C6.26318 5.47461 6.83029 6.04172 6.83029 6.74128C6.83029 7.44084 6.26318 8.00794 5.56362 8.00794C4.86406 8.00794 4.29696 7.44084 4.29696 6.74128ZM5.56362 6.34128C5.34271 6.34128 5.16362 6.52036 5.16362 6.74128C5.16362 6.96219 5.34271 7.14128 5.56362 7.14128C5.78454 7.14128 5.96362 6.96219 5.96362 6.74128C5.96362 6.52036 5.78454 6.34128 5.56362 6.34128Z" fill="#005DAC"/>
<path fill-rule="evenodd" clip-rule="evenodd" d="M7.67065 9.60977C7.67065 8.9102 8.23776 8.3431 8.93732 8.3431C9.63688 8.3431 10.204 8.9102 10.204 9.60977C10.204 10.3093 9.63688 10.8764 8.93732 10.8764C8.23776 10.8764 7.67065 10.3093 7.67065 9.60977ZM8.93732 9.20977C8.71641 9.20977 8.53732 9.38885 8.53732 9.60977C8.53732 9.83068 8.71641 10.0098 8.93732 10.0098C9.15823 10.0098 9.33732 9.83068 9.33732 9.60977C9.33732 9.38885 9.15823 9.20977 8.93732 9.20977Z" fill="#005DAC"/>
</svg>
