<svg width="24" height="24" viewBox="0 0 24 24" fill="none" xmlns="http://www.w3.org/2000/svg">
<path fill-rule="evenodd" clip-rule="evenodd" d="M4.73642 2.74926C5.20794 2.26952 5.84746 2 6.51429 2H13.8286C14.0104 2 14.1848 2.0735 14.3134 2.20434L19.7992 7.78574C19.9278 7.91658 20 8.09404 20 8.27907V19.4419C20 20.1203 19.7351 20.771 19.2636 21.2507C18.7921 21.7305 18.1525 22 17.4857 22H6.51429C5.84746 22 5.20794 21.7305 4.73642 21.2507C4.2649 20.771 4 20.1203 4 19.4419V4.55814C4 3.87968 4.2649 3.22901 4.73642 2.74926ZM6.51429 3.39535C6.21118 3.39535 5.92049 3.51786 5.70616 3.73592C5.49184 3.95399 5.37143 4.24975 5.37143 4.55814V19.4419C5.37143 19.7503 5.49184 20.046 5.70616 20.2641C5.92049 20.4821 6.21118 20.6047 6.51429 20.6047H17.4857C17.7888 20.6047 18.0795 20.4821 18.2938 20.2641C18.5082 20.046 18.6286 19.7503 18.6286 19.4419V8.97674H13.8286C13.4499 8.97674 13.1429 8.66438 13.1429 8.27907V3.39535H6.51429ZM14.5143 4.38201L17.6588 7.5814H14.5143V4.38201Z" fill="#F58220"/>
<path fill-rule="evenodd" clip-rule="evenodd" d="M8.57143 14.7907C8.57143 14.4054 8.87843 14.093 9.25714 14.093H14.7429C15.1216 14.093 15.4286 14.4054 15.4286 14.7907C15.4286 15.176 15.1216 15.4884 14.7429 15.4884H9.25714C8.87843 15.4884 8.57143 15.176 8.57143 14.7907Z" fill="#F58220"/>
</svg>
