<svg width="22" height="31" viewBox="0 0 22 31" fill="none" xmlns="http://www.w3.org/2000/svg">
<ellipse opacity="0.4" cx="14.0156" cy="28.763" rx="7.61654" ry="1.89974" fill="#697282"/>
<path d="M19.2024 16.013C18.0958 14.0368 14.3563 9.28903 14.3563 9.28903C14.3563 9.28903 9.85982 14.2435 8.76132 16.3735C7.34894 19.1122 6.88332 22.3669 6.85144 22.9373C6.79001 24.0408 7.48832 25.1558 8.9475 25.9982C11.7469 27.6143 16.286 27.6143 19.0855 25.9982C20.5448 25.1558 21.2432 24.0408 21.1816 22.9373C21.1816 21.9974 20.6927 18.6743 19.2024 16.013Z" fill="url(#paint0_radial_1_5762)"/>
<path d="M15.4584 14.9509C14.9155 15.0087 14.7946 14.8585 13.9466 14.5646C13.0986 14.2707 12.8404 15.2847 13.1873 15.6013C13.5343 15.9178 14.4296 16.7794 15.0436 16.7335C15.6577 16.6877 18.1397 15.1931 18.1875 14.8302C18.2353 14.4673 18.1486 13.8748 18.1125 13.5807C18.1124 13.5808 16.0013 14.8932 15.4584 14.9509Z" fill="white"/>
<path d="M14.2133 13.7253C13.2671 13.3973 12.979 14.5288 13.3661 14.882C13.7532 15.2352 14.7523 16.1967 15.4373 16.1454C15.8997 16.1109 17.3113 15.3402 18.1968 14.7182L18.2377 14.1198C18.2377 14.1198 18.9018 12.9557 18.8616 12.6276C18.8616 12.6276 16.5058 14.092 15.9001 14.1564C15.2945 14.2208 15.1595 14.0533 14.2133 13.7253Z" fill="#0058A4" fill-opacity="0.7"/>
<path d="M15.8741 14.021C15.2684 14.0854 15.1335 13.918 14.1873 13.5899C13.2411 13.2619 12.953 14.3935 13.3401 14.7467C13.7272 15.0998 14.7261 16.0613 15.4113 16.0101C16.0965 15.9588 18.866 14.2913 18.9192 13.8863C18.9725 13.4815 18.8758 12.8203 18.8356 12.4922C18.8356 12.4922 16.4798 13.9565 15.8741 14.021Z" fill="white"/>
<path d="M19.0972 10.5651C19.0972 10.5651 16.7162 12.5228 16.0584 12.6823C15.4006 12.8418 15.2275 12.677 14.1372 12.4542C13.047 12.2312 12.895 13.5198 13.3732 13.8523C13.8512 14.1848 15.5834 15.0727 15.8396 14.9412C17.4376 14.1029 18.3864 13.4197 18.8961 12.9071C18.8595 12.3322 19.1895 10.9207 19.0972 10.5651Z" fill="#0058A4" fill-opacity="0.7"/>
<path d="M16.035 12.5521C15.3771 12.7116 15.2041 12.5468 14.1138 12.3239C13.0235 12.101 12.8716 13.3896 13.3497 13.7221C13.8278 14.0546 15.56 14.9424 15.8161 14.8109C18.5281 13.3883 19.3703 12.4123 19.3698 11.9585C19.3693 11.5047 19.1661 10.7905 19.0738 10.4349C19.0738 10.4349 16.6928 12.3925 16.035 12.5521Z" fill="white"/>
<path d="M3.79303 8.71613C3.87553 9.42244 4.28272 9.98594 4.71172 10.2645C5.18134 10.5697 5.81378 10.6016 6.52878 10.2944L3.90628 8.77425L3.79303 8.71613Z" fill="#131019"/>
<path d="M9.16572 2.93723C9.15116 2.92704 9.13841 2.9141 9.12347 2.9046L9.01797 2.84323C8.58953 2.61785 7.90322 2.51692 7.29303 2.74973L8.76103 3.60285L9.91916 4.27585C9.82147 3.65329 9.54953 3.2031 9.16572 2.93723Z" fill="url(#paint1_linear_1_5762)"/>
<path d="M13.7435 5.91547L8.76223 3.60666L6.27748 2.16272C6.11061 2.22641 5.9393 2.30728 5.7643 2.40847C4.08486 3.37747 2.72461 5.73478 2.72461 7.67272C2.72461 7.82322 2.7338 7.96597 2.74973 8.10247C2.74973 8.10247 4.68973 9.19978 5.3723 9.62259C5.82923 9.90566 7.91105 10.9747 9.61261 12.6249C11.3142 14.2751 12.2244 13.8993 13.2001 15.0484C13.2629 14.9112 14.0861 13.6061 13.6675 12.9594C12.3632 10.9443 14.6447 11.9137 14.8992 11.5703C15.3765 10.9265 16.7038 6.64034 13.7435 5.91547Z" fill="white"/>
<path d="M5.54978 0.828046L5.52015 0.808983L5.51734 0.814734C4.97078 0.522359 4.23078 0.570921 3.41097 1.04367C1.73303 2.01261 0.371155 4.36986 0.371155 6.30917C0.371155 7.25161 0.697717 7.91473 1.21922 8.24273L1.21759 8.24717L1.24272 8.2603C1.25628 8.26936 1.27097 8.27648 1.28572 8.28555L4.71172 10.2682L4.71359 10.2652C4.28459 9.98661 3.99072 9.48136 3.90815 8.77498C3.89215 8.63855 3.88303 8.49586 3.88303 8.34523C3.88303 6.4073 5.24328 4.04998 6.92272 3.08098C7.09772 2.97986 7.2689 2.89898 7.43584 2.83536C8.04603 2.60255 8.5909 2.6213 9.01934 2.84667L5.5704 0.838359L5.54978 0.828046Z" fill="url(#paint2_linear_1_5762)"/>
<path d="M15.0644 6.04437C13.5487 6.18669 12.5065 6.755 11.5222 7.10725C11.5222 7.10725 14.8617 7.69581 14.9777 7.81712C15.942 9.18669 16.7823 9.36356 16.7823 9.36356C16.7823 9.36356 16.566 9.48275 16.2476 9.92156C15.9292 10.3604 15.8442 10.6223 15.8442 10.6223C15.8442 10.6223 15.3899 10.7213 14.3544 11.015C13.319 11.3087 13.4542 12.3714 13.8612 12.4832C13.8612 12.4832 15.1217 13.0807 16.6596 12.6402C17.199 12.4857 17.7148 12.0962 18.2542 11.6515C18.6579 11.3187 18.9591 11.0412 19.1701 10.7962C18.8956 9.68769 19.3681 9.32275 18.0065 7.80619C16.3167 5.92406 16.5802 5.90206 15.0644 6.04437Z" fill="#0058A4" fill-opacity="0.7"/>
<path d="M3.98053 8.8255L6.61595 10.3828L8.24012 11.476L8.91569 11.9791L9.60563 12.6259L10.3243 13.2152L10.8993 13.5889L11.5892 13.977L12.4947 14.667L13.4652 15.2994C13.6701 15.4329 13.8924 15.5376 14.1258 15.6106L14.3055 15.6667C14.5629 15.7472 14.8311 15.7881 15.1009 15.7881H15.1682" stroke="#4D8AC0" stroke-width="0.133333"/>
<path d="M15.0372 5.90896C13.5214 6.05127 12.0768 6.43084 11.0925 6.78315C11.0925 6.78315 14.8345 7.56046 14.9505 7.68177C15.9148 9.05133 16.7551 9.22821 16.7551 9.22821C16.7551 9.22821 16.5387 9.3474 16.2203 9.78621C15.902 10.225 15.817 10.487 15.817 10.487C15.817 10.487 15.3626 10.586 14.3272 10.8796C13.2917 11.1733 13.4269 12.236 13.8339 12.3478C13.8339 12.3478 15.0945 12.9453 16.6323 12.5048C17.1717 12.3503 17.6875 11.9608 18.227 11.5161C20.3046 9.80346 19.6691 9.55302 17.9792 7.67083C16.2894 5.78871 16.553 5.76665 15.0372 5.90896Z" fill="white"/>
<path d="M13.9721 11.7604C13.5923 11.4354 12.2847 10.1399 12.2847 10.1399C10.9244 8.90893 9.94853 9.07287 8.87384 9.61624C7.57372 10.2736 9.74978 11.8076 9.74978 11.8076C9.74978 11.8076 10.7763 12.9375 11.7804 13.9857C12.7844 15.0339 15.1248 16.6409 16.0535 15.2759C16.982 13.911 14.3518 12.0854 13.9721 11.7604Z" fill="#0058A4" fill-opacity="0.7"/>
<path d="M13.8363 11.8211C13.4566 11.4961 12.1489 10.2006 12.1489 10.2006C11.6491 9.65669 9.97854 8.75257 8.67847 9.40994C7.37835 10.0673 9.25699 12.2876 9.25699 12.2876C9.25699 12.2876 10.0751 13.1057 11.7705 14.1253C13.4066 15.3109 15.0255 16.5753 15.9542 15.2104C16.8828 13.8454 14.2161 12.1461 13.8363 11.8211Z" fill="white"/>
<path d="M10.0956 6.49542L9.77882 6.4587C9.3342 6.40718 8.94403 6.75475 8.94403 7.20235C8.94403 7.37125 9.00115 7.53518 9.1061 7.66752L9.9705 8.75749C10.0659 8.87772 10.1813 8.9806 10.3116 9.06158L12.3043 10.2994C12.3374 10.32 12.3682 10.3441 12.3961 10.3713C12.6781 10.6459 13.1497 10.5368 13.2823 10.1662L13.3487 9.98099C13.4355 9.73847 13.3749 9.46762 13.1931 9.28518L10.7082 6.79222C10.5434 6.6269 10.3275 6.52228 10.0956 6.49542Z" fill="#7892A7"/>
<path d="M14.8392 13.3418C14.2605 13.787 13.6967 14.7712 13.6967 14.7712C13.6967 14.7712 14.2086 15.2634 14.7427 15.3822C15.277 15.5008 15.455 15.1744 15.6993 14.6847C15.9436 14.195 15.0027 13.216 14.8392 13.3418Z" fill="#E8F5FF"/>
<path d="M18.9406 4.34781C17.7585 4.35831 18.0281 3.388 16.7516 3.388C15.4753 3.388 14.8946 4.515 13.5746 3.62C12.2545 2.72506 11.8966 4.73863 10.7299 4.30481C10.2727 4.17756 9.3105 3.84619 9.06069 5.37631C8.75863 7.4235 12.4236 9.31331 13.0055 11.0373C13.0055 11.0373 13.2654 11.2879 13.5643 11.5715C13.9415 10.8028 15.3038 10.6582 15.8184 10.4871C15.8184 10.4871 15.9564 10.1402 16.2218 9.78637C16.3555 9.608 16.7181 9.28737 16.7181 9.28737C17.4476 8.31981 18.4348 7.02369 18.9406 6.41669C19.8026 5.38225 19.8542 4.33731 18.9406 4.34781Z" fill="url(#paint3_linear_1_5762)"/>
<defs>
<radialGradient id="paint0_radial_1_5762" cx="0" cy="0" r="1" gradientUnits="userSpaceOnUse" gradientTransform="translate(15.7897 17.4706) rotate(133.898) scale(11.4956 12.6811)">
<stop stop-color="#70B5F6"/>
<stop offset="0.864189" stop-color="#00427C"/>
</radialGradient>
<linearGradient id="paint1_linear_1_5762" x1="8.60609" y1="4.19394" x2="8.60609" y2="2.91367" gradientUnits="userSpaceOnUse">
<stop stop-color="#054A86"/>
<stop offset="1" stop-color="#002445"/>
</linearGradient>
<linearGradient id="paint2_linear_1_5762" x1="6.25596" y1="1.52885" x2="3.10824" y2="9.44219" gradientUnits="userSpaceOnUse">
<stop stop-color="#82C5FF"/>
<stop offset="1" stop-color="#175F9F"/>
</linearGradient>
<linearGradient id="paint3_linear_1_5762" x1="10.7116" y1="16.8454" x2="19.4912" y2="3.52806" gradientUnits="userSpaceOnUse">
<stop stop-color="#074275"/>
<stop offset="1" stop-color="#5FADF6"/>
</linearGradient>
</defs>
</svg>
