<svg width="16" height="18" viewBox="0 0 16 18" fill="none" xmlns="http://www.w3.org/2000/svg">
<path fill-rule="evenodd" clip-rule="evenodd" d="M12.6154 1.82942C11.6595 1.82942 10.8846 2.61032 10.8846 3.5736C10.8846 3.87954 10.9628 4.16708 11.1001 4.41705C11.1075 4.42807 11.1146 4.43943 11.1214 4.45111C11.1281 4.46271 11.1344 4.47443 11.1402 4.48628C11.4448 4.98516 11.9915 5.31779 12.6154 5.31779C13.5713 5.31779 14.3462 4.53689 14.3462 3.5736C14.3462 2.61032 13.5713 1.82942 12.6154 1.82942ZM10.4644 5.51062C10.9926 6.1059 11.7606 6.48058 12.6154 6.48058C14.2085 6.48058 15.5 5.17908 15.5 3.5736C15.5 1.96812 14.2085 0.666626 12.6154 0.666626C11.0223 0.666626 9.73077 1.96812 9.73077 3.5736C9.73077 3.89993 9.78413 4.2137 9.88253 4.50653L5.5356 7.06297C5.00738 6.46767 4.23942 6.09298 3.38462 6.09298C1.79149 6.09298 0.5 7.39448 0.5 8.99996C0.5 10.6054 1.79149 11.9069 3.38462 11.9069C4.23953 11.9069 5.00759 11.5321 5.53581 10.9367L9.88368 13.49C9.78454 13.7838 9.73077 14.0987 9.73077 14.4263C9.73077 16.0318 11.0223 17.3333 12.6154 17.3333C14.2085 17.3333 15.5 16.0318 15.5 14.4263C15.5 12.8208 14.2085 11.5193 12.6154 11.5193C11.7619 11.5193 10.995 11.8929 10.4668 12.4866L6.11759 9.93254C6.21592 9.63981 6.26923 9.32616 6.26923 8.99996C6.26923 8.67365 6.21588 8.35989 6.11749 8.06707L10.4644 5.51062ZM4.85998 8.08757C4.86578 8.09932 4.872 8.11096 4.87866 8.12246C4.88538 8.13406 4.89243 8.14534 4.8998 8.15628C5.03718 8.40631 5.11538 8.69393 5.11538 8.99996C5.11538 9.30603 5.03716 9.59369 4.89975 9.84373C4.89233 9.85476 4.88523 9.86611 4.87848 9.87779C4.8719 9.88916 4.86575 9.90067 4.86002 9.91229C4.5555 10.4114 4.00862 10.7441 3.38462 10.7441C2.42874 10.7441 1.65385 9.96325 1.65385 8.99996C1.65385 8.03667 2.42874 7.25577 3.38462 7.25577C4.00859 7.25577 4.55545 7.58853 4.85998 8.08757ZM11.0797 13.6211C11.0977 13.5985 11.1143 13.5743 11.1293 13.5485C11.1437 13.5236 11.156 13.498 11.1664 13.472C11.4755 12.9964 12.009 12.6821 12.6154 12.6821C13.5713 12.6821 14.3462 13.463 14.3462 14.4263C14.3462 15.3896 13.5713 16.1705 12.6154 16.1705C11.6595 16.1705 10.8846 15.3896 10.8846 14.4263C10.8846 14.1359 10.9551 13.862 11.0797 13.6211Z" fill="#005DAC"/>
</svg>
