<svg width="16" height="16" viewBox="0 0 16 16" fill="none" xmlns="http://www.w3.org/2000/svg">
<path d="M14.2992 1.67187L12.1496 0.429891H12.1494C11.4607 0.019662 10.5571 0.0510879 9.56743 0.622397L4.25516 3.68952C2.09506 4.93658 0.344055 8.28239 0.344055 11.1623C0.344055 12.7753 0.893348 13.8999 1.75596 14.3585V14.3587L3.86149 15.5767L3.86167 15.5766C4.54909 15.9798 5.44821 15.9456 6.43238 15.3775L8.51796 14.1733L11.5269 14.7251C11.7994 14.7751 12.1214 14.2439 12.0279 13.8986L11.6178 12.3837L11.7448 12.3103C13.9049 11.0633 15.6559 7.71748 15.6559 4.83741C15.6559 3.25915 15.13 2.14834 14.2992 1.67187Z" fill="url(#paint0_linear_1_5917)"/>
<path d="M11.7449 1.88072L6.4324 4.94784C4.27249 6.19508 2.5213 9.54071 2.5213 12.4208C2.5213 15.3008 4.27249 16.6245 6.4324 15.3774L8.51798 14.1733L11.527 14.725C11.7994 14.7751 12.1214 14.244 12.0279 13.8985L11.6178 12.3837L11.7449 12.3103C13.905 11.0633 15.656 7.71745 15.656 4.83737C15.656 1.9573 13.905 0.633657 11.7449 1.88072Z" fill="url(#paint1_linear_1_5917)"/>
<path d="M6.67344 9.70104L6.35786 9.52453C6.17608 9.37418 5.91922 9.36307 5.63432 9.52754C5.08333 9.84575 4.6366 10.6993 4.6366 11.434C4.6366 11.8275 4.76456 12.1067 4.96817 12.2328L5.30764 12.4283C5.48773 12.5595 5.73387 12.5623 6.00578 12.4054C6.55677 12.0873 7.0035 11.2338 7.0035 10.4989C7.0035 10.1066 6.87611 9.8275 6.67344 9.70104Z" fill="#D1D1D1"/>
<path d="M7.00351 10.4989C7.00351 11.2338 6.55677 12.0873 6.00578 12.4054C5.45461 12.7236 5.00787 12.3858 5.00787 11.6511C5.00787 10.9163 5.45461 10.0627 6.00578 9.7447C6.55677 9.42649 7.00351 9.76427 7.00351 10.4989Z" fill="white"/>
<path d="M10.3557 7.56448L10.0403 7.38797C9.85834 7.23762 9.60166 7.22632 9.31676 7.39079C8.76558 7.709 8.31885 8.56258 8.31885 9.29742C8.31885 9.69071 8.447 9.96997 8.65042 10.096L8.99008 10.2916C9.16998 10.4227 9.4163 10.4255 9.68803 10.2688C10.2392 9.95058 10.6858 9.09701 10.6858 8.36217C10.6858 7.97001 10.5584 7.69094 10.3557 7.56448Z" fill="#D1D1D1"/>
<path d="M10.6858 8.36214C10.6858 9.09698 10.2392 9.95055 9.68803 10.2688C9.13704 10.5868 8.69031 10.2492 8.69031 9.51435C8.69031 8.77971 9.13704 7.92613 9.68803 7.60792C10.239 7.28971 10.6858 7.62749 10.6858 8.36214Z" fill="white"/>
<path d="M14.0382 5.42767L13.7226 5.25116C13.5408 5.1008 13.284 5.0897 12.9991 5.25417C12.4481 5.57219 12.0013 6.42595 12.0013 7.1606C12.0013 7.55389 12.1295 7.83334 12.3329 7.95942L12.6726 8.15494C12.8525 8.28591 13.0986 8.28892 13.3705 8.13198C13.9215 7.81377 14.3683 6.96019 14.3683 6.22554C14.3683 5.83319 14.2409 5.55412 14.0382 5.42767Z" fill="#D1D1D1"/>
<path d="M14.3682 6.22559C14.3682 6.96023 13.9215 7.81381 13.3705 8.13202C12.8194 8.45023 12.3728 8.11245 12.3728 7.3778C12.3728 6.64297 12.8194 5.78939 13.3705 5.47118C13.9215 5.15316 14.3682 5.49075 14.3682 6.22559Z" fill="white"/>
<defs>
<linearGradient id="paint0_linear_1_5917" x1="2.78262" y1="-1.62818" x2="-1.19833" y2="12.6913" gradientUnits="userSpaceOnUse">
<stop offset="0.07045" stop-color="#064E8D"/>
<stop offset="0.480878" stop-color="#0B6ECA"/>
<stop offset="1" stop-color="#075498"/>
</linearGradient>
<linearGradient id="paint1_linear_1_5917" x1="5.95949" y1="17.5601" x2="10.9148" y2="0.286832" gradientUnits="userSpaceOnUse">
<stop stop-color="#3376C3"/>
<stop offset="1" stop-color="#93BBE9"/>
</linearGradient>
</defs>
</svg>
