<svg width="17" height="16" viewBox="0 0 17 16" fill="none" xmlns="http://www.w3.org/2000/svg">
<path d="M11.4874 7.4137C11.4874 7.24516 11.3508 7.10853 11.1823 7.10853H7.72721C7.55867 7.10853 7.42204 7.24516 7.42204 7.4137C7.42204 7.58225 7.55867 7.71888 7.72721 7.71888H9.17338C9.67524 7.87469 9.8454 8.23762 9.90068 8.56108H7.93915C7.75376 8.56108 7.60347 8.71137 7.60347 8.89676C7.60347 9.08216 7.75376 9.23245 7.93915 9.23245H9.88188C9.83666 9.40452 9.74977 9.58597 9.59236 9.73109C9.27871 10.018 8.73516 10.0464 8.02945 9.97315C7.85137 9.95677 7.69771 10.0969 7.69771 10.2758V10.3957C7.69771 10.497 7.73492 10.5948 7.80226 10.6705L9.51331 12.5932C9.58368 12.6723 9.68449 12.7175 9.79034 12.7175C10.1199 12.7175 10.2857 12.3199 10.0538 12.0857L8.6158 10.6336C10.0457 10.6336 10.4821 9.99321 10.5705 9.23245H10.9652C11.1506 9.23245 11.3009 9.08216 11.3009 8.89676C11.3009 8.71137 11.1506 8.56108 10.9652 8.56108H10.5607C10.5127 8.24389 10.3915 7.95445 10.1841 7.71888H11.1823C11.3508 7.71888 11.4874 7.58225 11.4874 7.4137Z" fill="#005DAC"/>
<path d="M8.44454 4.56028L9.25286 5.3782C7.06061 5.48507 5.31564 7.31745 5.31564 9.56222C5.31564 11.8757 7.16908 13.7512 9.4554 13.7512C11.7417 13.7512 13.5952 11.8757 13.5952 9.56222C13.5952 7.96698 12.7139 6.58001 11.4172 5.87257L12.0798 5.20207C13.5311 6.09841 14.4999 7.71583 14.4999 9.56222C14.4999 12.3813 12.2414 14.6667 9.4554 14.6667C6.66939 14.6667 4.41088 12.3813 4.41088 9.56222C4.41088 7.09343 6.14295 5.03399 8.44454 4.56028Z" fill="#005DAC"/>
<path d="M11.6351 1.33334C11.4352 1.33334 11.2732 1.4973 11.2732 1.69955C11.2732 1.9018 11.4352 2.06575 11.6351 2.06575H13.0472L10.5794 4.56164L8.18489 2.13871C8.01648 1.9683 7.74634 1.9592 7.56711 2.11789L2.74171 6.39028C2.55369 6.55676 2.53463 6.84595 2.69916 7.03621C2.86368 7.22647 3.14948 7.24575 3.3375 7.07928L7.84439 3.08889L10.2594 5.53261C10.436 5.71134 10.7224 5.71138 10.8991 5.53269L13.6859 2.71423V4.14091C13.6859 4.34316 13.8479 4.50712 14.0478 4.50712C14.2476 4.50712 14.4097 4.34316 14.4097 4.14091V1.69955C14.4097 1.4973 14.2476 1.33334 14.0478 1.33334H11.6351Z" fill="#005DAC"/>
<path d="M2.28563 7.65043C2.03579 7.65043 1.83325 7.85538 1.83325 8.10819V13.6013C1.83325 13.8541 2.03579 14.059 2.28563 14.059H7.10361V13.1435H2.73801V12.1364H5.19666V11.404H2.73801V10.3054H5.19666V9.57295H2.73801V8.56595H5.14369V7.65043H2.28563Z" fill="#005DAC"/>
</svg>
