<svg width="24" height="29" viewBox="0 0 24 29" fill="none" xmlns="http://www.w3.org/2000/svg">
<path d="M10.1513 19.2799C11.075 17.7439 13.1959 14.7997 18.2459 10.6627C25.8661 4.42006 18.6741 -1.28989 10.9478 1.75121C10.1213 2.07657 7.83094 0.774076 5.70933 2.14626C4.34073 3.03143 4.87335 3.72512 4.34045 4.41883C3.80756 5.11253 1.75305 5.0717 1.30298 6.87299C1.03642 7.94016 1.77407 9.05798 1.67541 9.86121C1.57674 10.6644 0.798033 11.3885 0.760883 12.4489C0.744799 12.8967 0.817102 13.3434 0.973663 13.7633C1.13022 14.1832 1.36797 14.5682 1.67334 14.8962C1.9787 15.2242 2.34569 15.4888 2.75334 15.675C3.161 15.8612 3.60134 15.9652 4.04921 15.9812C4.05287 16.8666 4.39858 17.7163 5.0141 18.3527C5.62962 18.9892 6.46731 19.3631 7.35209 19.3964C7.91943 19.4171 8.4829 19.2951 8.99081 19.0414C9.49476 19.5059 9.9274 19.652 10.1513 19.2799Z" fill="url(#paint0_linear_990_351)"/>
<path d="M12.0399 1.37332C10.7262 2.21599 9.10096 4.97972 9.81435 8.6897C9.96997 9.49919 9.48368 9.74154 9.06768 8.74303C7.81253 5.73066 7.66704 3.01396 9.81435 1.71444C10.1877 1.4897 10.401 1.67178 10.6677 1.6497C11.1749 1.60767 11.8578 1.24831 12.0399 1.37332Z" fill="url(#paint1_linear_990_351)"/>
<path d="M10.3334 17.6934C10.3334 16.7334 10.3007 11.9982 10.3023 11.9182C7.66672 12.3067 7.72005 7.29336 10.3867 8.52003C10.9734 8.89336 12.6267 8.52003 12.4667 5.4267C15.3467 8.52003 18.6904 4.91214 18.9771 7.85208C19.3687 11.8665 18.9748 16.0677 16.4799 16.068C16.207 16.0647 15.9349 16.0375 15.6667 15.9867V17.6934C15.6667 18.76 17.5867 19.2934 17.5867 19.2934C17.5867 19.2934 14.2702 22.4187 12.8934 22.4014C11.5165 22.3841 8.41338 19.2934 8.41338 19.2934C8.41338 19.2934 10.3334 18.76 10.3334 17.6934Z" fill="url(#paint2_linear_990_351)"/>
<g style="mix-blend-mode:multiply">
<path d="M15.6666 15.9861C14.3433 15.6926 13.0893 15.1457 11.9739 14.3755C11.9739 14.3755 12.8942 16.6255 15.6631 17.0524L15.6666 15.9861Z" fill="#FFDBC9"/>
</g>
<path d="M22.8133 22.4933C23.5872 24.213 23.9866 29.4267 23.9866 29.4267H2.01331C2.01331 29.4267 2.41277 24.213 3.18664 22.4933C3.86461 20.9869 8.33213 19.2572 9.64136 18.76C10.3973 19.6057 11.4806 20.1467 13 20.1467C14.5193 20.1467 15.6026 19.6057 16.3586 18.76C17.6678 19.2572 22.1353 20.9869 22.8133 22.4933Z" fill="url(#paint3_linear_990_351)"/>
<defs>
<linearGradient id="paint0_linear_990_351" x1="10.7554" y1="19.5243" x2="11.4124" y2="0.769717" gradientUnits="userSpaceOnUse">
<stop stop-color="#E6864E"/>
<stop offset="1" stop-color="#E67240"/>
</linearGradient>
<linearGradient id="paint1_linear_990_351" x1="10.0975" y1="1.34705" x2="10.0975" y2="9.39885" gradientUnits="userSpaceOnUse">
<stop stop-color="#1D0024"/>
<stop offset="1" stop-color="#100014"/>
</linearGradient>
<linearGradient id="paint2_linear_990_351" x1="13.7318" y1="5.4267" x2="13.7318" y2="22.4015" gradientUnits="userSpaceOnUse">
<stop stop-color="#FFE0CC"/>
<stop offset="1" stop-color="#FFEADB"/>
</linearGradient>
<linearGradient id="paint3_linear_990_351" x1="13" y1="18.76" x2="13" y2="29.4267" gradientUnits="userSpaceOnUse">
<stop stop-color="#130027"/>
<stop offset="1" stop-color="#130017"/>
</linearGradient>
</defs>
</svg>
