<svg width="24" height="32" viewBox="0 0 24 32" fill="none" xmlns="http://www.w3.org/2000/svg">
<path d="M23.329 25.3859C23.329 26.6329 22.5708 27.2061 21.6356 26.6661C20.7003 26.1262 19.9421 24.6776 19.9421 23.4305C19.9421 22.1835 20.7003 21.6103 21.6356 22.1503C22.5709 22.6903 23.329 24.1389 23.329 25.3859Z" fill="url(#paint0_linear_1_5067)"/>
<path d="M21.8642 25.9184C22.2897 25.7371 22.3748 24.9805 22.0544 24.2284C21.7339 23.4763 21.1292 23.0136 20.7037 23.1949C20.2783 23.3762 20.1931 24.1328 20.5136 24.8849C20.834 25.637 21.4387 26.0997 21.8642 25.9184Z" fill="#9EC6F3"/>
<path d="M15.2614 9.69162C12.8516 8.30037 10.8982 9.77718 10.8982 12.9901C10.8982 16.2031 12.8517 19.9356 15.2614 21.3268C17.6711 22.7181 19.6246 21.2412 19.6246 18.0283C19.6246 14.8154 17.6711 11.0829 15.2614 9.69162ZM15.2614 19.8056C13.4818 18.7782 12.0391 16.0217 12.0391 13.6489C12.0391 11.276 13.0538 10.9046 14.8334 11.9321C16.6131 12.9595 17.7318 14.8722 17.7318 17.2451C17.7317 19.6178 17.041 20.8331 15.2614 19.8056Z" fill="url(#paint1_linear_1_5067)"/>
<path d="M17.6231 17.0118L17.5585 16.6904L16.4018 16.4902L15.6872 15.7888L16.0393 15.1141L17.1053 14.9696L17.0003 14.6472L16.2283 14.7518L16.6411 13.9609L16.4448 13.7076L15.8748 14.7998L15.2163 14.889L14.9997 13.8112L15.3504 12.4713L15.1374 12.2623L14.8834 13.2326L14.6294 11.969L14.4163 11.9321L14.7671 13.6769L14.5504 14.5046L13.8919 13.655L13.3219 11.9046L13.1256 11.9313L13.5384 13.1988L12.7664 12.2028L12.6614 12.4039L13.7274 13.7793L14.0794 14.8606L13.3649 14.7369L12.2081 13.6014L12.1436 13.8482L12.9813 14.6705L12.1436 14.5255L12.2081 14.8469L13.3649 15.0471L14.0794 15.7485L13.7274 16.4232L12.6614 16.5677L12.7664 16.8901L13.5384 16.7854L13.1256 17.5764L13.3219 17.8297L13.8919 16.7374L14.5504 16.6482L14.767 17.7261L14.4163 19.0659L14.6293 19.2751L14.8833 18.3048L15.1373 19.5684L15.3504 19.6053L14.9996 17.8605L15.2163 17.0328L15.8748 17.8824L16.4447 19.6328L16.641 19.6061L16.2283 18.3386L17.0002 19.3346L17.1052 19.1334L16.0393 17.7581L15.6872 16.6768L16.4018 16.8005L17.5585 17.936L17.6231 17.6892L16.7854 16.8669L17.6231 17.0118ZM15.6858 15.162L15.4699 15.5755L15.3258 15.4341L15.2821 15.2167L15.6858 15.162ZM14.8833 14.2556L15.0161 14.9162L14.8833 14.9342L14.7506 14.7629L14.8833 14.2556ZM14.0809 14.2355L14.4844 14.7562L14.4408 14.9231L14.2967 14.8982L14.0809 14.2355ZM13.7485 15.1134L14.1865 15.1893L14.2575 15.4073L14.1865 15.5434L13.7485 15.1134ZM14.0809 16.3753L14.2968 15.9617L14.4409 16.1032L14.4846 16.3206L14.0809 16.3753ZM14.8833 17.2817L14.7505 16.6211L14.8833 16.6031L15.0161 16.7744L14.8833 17.2817ZM15.6858 17.3018L15.2822 16.7811L15.3259 16.6142L15.47 16.6391L15.6858 17.3018ZM15.5802 16.348L15.5092 16.1299L15.5802 15.9939L16.0182 16.4238L15.5802 16.348Z" fill="#9EC6F3"/>
<path d="M14.8833 11.4722C13.1037 10.4448 11.661 11.5354 11.661 13.9082C11.661 16.2811 13.1037 19.0375 14.8833 20.065C16.6629 21.0924 18.1056 20.0018 18.1056 17.6291C18.1056 15.2562 16.6629 12.4997 14.8833 11.4722ZM14.8833 19.224C13.4521 18.3977 12.2918 16.1807 12.2918 14.2724C12.2918 12.3641 13.452 11.4869 14.8833 12.3133C16.3146 13.1396 17.4749 15.3566 17.4749 17.2649C17.4749 19.1732 16.3146 20.0504 14.8833 19.224Z" fill="#1E3C5D"/>
<path d="M21.109 18.2351C20.817 18.2351 20.5803 17.9985 20.5803 17.7065V14.4458L12.9682 10.0509C12.7153 9.90496 12.6287 9.58159 12.7747 9.32871C12.9207 9.07577 13.2441 8.98921 13.4969 9.13521L21.1286 13.5414C21.4426 13.7227 21.6377 14.0606 21.6377 14.4231V17.7064C21.6377 17.9985 21.401 18.2351 21.109 18.2351Z" fill="#DFE7F0"/>
<path d="M19.6142 9.99438C19.6142 9.95613 19.5953 9.91788 19.5574 9.896L15.1101 7.32838C15.0193 7.27588 14.9073 7.27588 14.8164 7.32838L13.2894 8.21C13.2519 8.23163 13.2331 8.26931 13.2328 8.30713H13.2326V8.308V8.30881L13.2326 9.03694V9.039L13.2327 9.03906C13.2334 9.07663 13.2522 9.11388 13.2894 9.13538L17.7366 11.703C17.8275 11.7555 17.9395 11.7555 18.0304 11.703L19.5574 10.8214C19.5953 10.7995 19.6142 10.7613 19.6142 10.723V9.99438Z" fill="url(#paint2_linear_1_5067)"/>
<path d="M13.2894 8.20971L14.8164 7.32809C14.9073 7.27565 15.0193 7.27565 15.1101 7.32809L19.5574 9.89571C19.6331 9.9394 19.6331 10.0487 19.5574 10.0924L18.0304 10.974C17.9395 11.0265 17.8275 11.0265 17.7366 10.974L13.2894 8.4064C13.2136 8.36277 13.2136 8.25346 13.2894 8.20971Z" fill="url(#paint3_linear_1_5067)"/>
<path d="M11.6618 2.30082C11.5337 2.30082 11.4039 2.2682 11.2849 2.19951L9.91638 1.40945C9.55519 1.20088 9.43138 0.739008 9.63994 0.377758C9.8485 0.0165084 10.3104 -0.107179 10.6716 0.101321L12.0401 0.891383C12.4014 1.09995 12.5251 1.56182 12.3166 1.92307C12.1767 2.16538 11.9228 2.30082 11.6618 2.30082Z" fill="#085BA6"/>
<path d="M20.9043 22.3121C20.8146 22.3121 20.7238 22.2893 20.6404 22.2412L12.4249 17.498V2.7272C12.4249 2.64632 12.3814 2.57101 12.3113 2.53051L11.6668 2.15838C11.4139 2.01238 11.3273 1.68907 11.4733 1.4362C11.6193 1.18326 11.9426 1.09676 12.1954 1.2427L12.84 1.61482C13.2361 1.84357 13.4823 2.26976 13.4823 2.7272V16.8875L21.1691 21.3255C21.422 21.4715 21.5086 21.7948 21.3626 22.0477C21.2648 22.2173 21.0871 22.3121 20.9043 22.3121Z" fill="#DFE7F0"/>
<path d="M21.109 25.2013C20.817 25.2013 20.5803 24.9646 20.5803 24.6726V17.2245C20.5803 16.9325 20.817 16.6958 21.109 16.6958C21.401 16.6958 21.6377 16.9325 21.6377 17.2245V24.6726C21.6377 24.9646 21.401 25.2013 21.109 25.2013Z" fill="#DFE7F0"/>
<path d="M3.28413 7.1672C3.156 7.1672 3.02619 7.13458 2.90719 7.06589L1.53869 6.27583C1.1775 6.06726 1.05369 5.60539 1.26225 5.24414C1.47088 4.88295 1.93269 4.7592 2.29394 4.9677L3.66244 5.75776C4.02369 5.96633 4.14744 6.4282 3.93888 6.78945C3.799 7.0317 3.54513 7.1672 3.28413 7.1672Z" fill="#085BA6"/>
<path d="M17.4266 28.8211V28.8201L17.4264 28.8202C17.4259 28.7739 17.4029 28.7278 17.3571 28.7013L15.4884 27.6224C15.3771 27.5581 15.2401 27.5581 15.1289 27.6224L12.4423 29.1694C12.396 29.1962 12.3728 29.243 12.3728 29.2898V29.8564C12.3728 29.9032 12.396 29.95 12.4423 29.9767L14.3111 31.0557C14.4223 31.1199 14.5593 31.1199 14.6706 31.0557L17.3571 29.5086C17.4026 29.4824 17.4256 29.4367 17.4264 29.3908L17.4266 29.3908V29.3883V29.3882L17.4266 28.8223C17.4266 28.8219 17.4266 28.8215 17.4266 28.8211Z" fill="url(#paint4_linear_1_5067)"/>
<path d="M17.3569 28.7013L15.4881 27.6224C15.3769 27.5582 15.2399 27.5582 15.1286 27.6224L12.4421 29.1694C12.3494 29.2229 12.3494 29.3567 12.4421 29.4102L14.3108 30.4891C14.4221 30.5533 14.5591 30.5533 14.6703 30.4891L17.3569 28.942C17.4495 28.8885 17.4495 28.7548 17.3569 28.7013Z" fill="url(#paint5_linear_1_5067)"/>
<path d="M20.289 16.5572C20.289 16.4464 20.2341 16.3354 20.1244 16.2721L12.9212 12.1133L12.92 3.79431C12.92 3.65956 12.8421 3.55224 12.7364 3.49987L12.7365 3.49981L12.3297 3.26537C12.3282 3.26449 12.3267 3.26362 12.3251 3.26274L12.3232 3.26162L12.3232 3.26174C12.2279 3.20856 12.1066 3.20156 11.9986 3.26393L5.41181 7.06681C5.178 7.20181 5.03394 7.45131 5.03394 7.72131V15.6031V16.3921C5.03394 16.6014 5.14556 16.7947 5.32681 16.8994L5.957 17.2632L12.7822 21.2037C13.0161 21.3388 13.3043 21.3388 13.5382 21.2037L20.1244 17.4012C20.2341 17.3378 20.289 17.2269 20.289 17.116V16.5572Z" fill="url(#paint6_linear_1_5067)"/>
<path d="M5.463 16.4193L12.9211 12.1133L20.1243 16.2721C20.3439 16.3988 20.3439 16.7157 20.1243 16.8424L13.5381 20.645C13.3042 20.7801 13.016 20.7801 12.7821 20.645L5.463 16.4193Z" fill="url(#paint7_linear_1_5067)"/>
<path d="M5.83974 7.31226L12.4265 3.50938C12.6458 3.38276 12.92 3.54101 12.92 3.79432V12.1124L5.46187 16.4183V7.96676C5.46187 7.69676 5.60587 7.44726 5.83974 7.31226Z" fill="url(#paint8_linear_1_5067)"/>
<path d="M12.5266 27.1784C12.4369 27.1784 12.3461 27.1556 12.2628 27.1075L4.0472 22.3642V7.59356C4.0472 7.51268 4.0037 7.43731 3.93363 7.39687L3.28907 7.02474C3.0362 6.87881 2.94957 6.55543 3.09557 6.30256C3.24157 6.04962 3.56494 5.96306 3.81776 6.10906L4.46232 6.48118C4.85844 6.70993 5.10457 7.13612 5.10457 7.59356V21.7537L12.7914 26.1918C13.0443 26.3377 13.1309 26.6611 12.9849 26.914C12.8871 27.0836 12.7093 27.1784 12.5266 27.1784Z" fill="#DFE7F0"/>
<path d="M12.7313 30.0676C12.4393 30.0676 12.2026 29.8309 12.2026 29.5389V22.0908C12.2026 21.7988 12.4393 21.5621 12.7313 21.5621C13.0233 21.5621 13.26 21.7988 13.26 22.0908V29.5389C13.26 29.8309 13.0233 30.0676 12.7313 30.0676Z" fill="#DFE7F0"/>
<path d="M5.03419 15.628C2.62444 14.2367 0.671005 15.7135 0.671005 18.9265C0.671005 22.1394 2.62444 25.8719 5.03419 27.2631C7.44394 28.6544 9.39738 27.1776 9.39738 23.9646C9.39738 20.7516 7.44388 17.0192 5.03419 15.628ZM5.03419 25.7419C3.25457 24.7145 1.81194 21.958 1.81194 19.5851C1.81194 17.2123 2.82663 16.8409 4.60626 17.8683C6.38588 18.8958 7.50457 20.8085 7.50457 23.1813C7.50451 25.5541 6.81376 26.7694 5.03419 25.7419Z" fill="url(#paint9_linear_1_5067)"/>
<path d="M7.39588 22.9481L7.33132 22.6267L6.17457 22.4265L5.46001 21.7251L5.81207 21.0504L6.87801 20.9059L6.77301 20.5835L6.00107 20.6881L6.41382 19.8972L6.21751 19.6439L5.64757 20.7361L4.98907 20.8253L4.77245 19.7474L5.1232 18.4076L4.91013 18.1984L4.65613 19.1688L4.40213 17.9052L4.18907 17.8683L4.53982 19.6131L4.32313 20.4408L3.66463 19.5911L3.0947 17.8408L2.89838 17.8674L3.31113 19.135L2.5392 18.139L2.4342 18.3401L3.50013 19.7155L3.8522 20.7968L3.13763 20.6731L1.98088 19.5376L1.91632 19.7844L2.75401 20.6067L1.91632 20.4617L1.98088 20.7831L3.13763 20.9833L3.8522 21.6848L3.50013 22.3594L2.4342 22.5039L2.5392 22.8263L3.31113 22.7217L2.89838 23.5126L3.0947 23.7659L3.66463 22.6738L4.32313 22.5845L4.53976 23.6623L4.18901 25.0022L4.40207 25.2113L4.65607 24.2409L4.91007 25.5045L5.12313 25.5414L4.77238 23.7965L4.98907 22.9688L5.64751 23.8184L6.21745 25.5688L6.41376 25.5421L6.00101 24.2745L6.77295 25.2705L6.87795 25.0694L5.81201 23.694L5.45995 22.6128L6.17451 22.7364L7.33126 23.8719L7.39582 23.6251L6.55813 22.8028L7.39588 22.9481ZM5.45857 21.0983L5.24276 21.5119L5.09863 21.3704L5.05495 21.153L5.45857 21.0983ZM4.65613 20.1919L4.78895 20.8525L4.65613 20.8705L4.52338 20.6992L4.65613 20.1919ZM3.8537 20.1718L4.25726 20.6925L4.21357 20.8594L4.06945 20.8344L3.8537 20.1718ZM3.52132 21.0498L3.95932 21.1256L4.03032 21.3436L3.95932 21.4797L3.52132 21.0498ZM3.8537 22.3116L4.06951 21.898L4.21363 22.0395L4.25732 22.2569L3.8537 22.3116ZM4.65613 23.218L4.52332 22.5574L4.65613 22.5394L4.78895 22.7107L4.65613 23.218ZM5.45857 23.2381L5.05501 22.7174L5.0987 22.5504L5.24276 22.5754L5.45857 23.2381ZM5.35295 22.2843L5.28195 22.0663L5.35295 21.9302L5.79095 22.3601L5.35295 22.2843Z" fill="#9EC6F3"/>
<path d="M5.18578 22.9212C5.56806 22.7583 5.64457 22.0785 5.35665 21.4028C5.06874 20.727 4.52544 20.3113 4.14316 20.4742C3.76088 20.6371 3.68437 21.3169 3.97228 21.9926C4.2602 22.6683 4.8035 23.0841 5.18578 22.9212Z" fill="#1E3C5D"/>
<path d="M4.903 22.1581C4.903 22.5074 4.69069 22.6679 4.42875 22.5166C4.16681 22.3655 3.9545 21.9597 3.9545 21.6105C3.9545 21.2613 4.16681 21.1008 4.42875 21.252C4.69069 21.4032 4.903 21.8089 4.903 22.1581Z" fill="#9EC6F3"/>
<path d="M4.65614 17.4086C2.87651 16.3811 1.43382 17.4718 1.43382 19.8446C1.43382 22.2174 2.87651 24.9738 4.65614 26.0013C6.43576 27.0288 7.87845 25.9381 7.87845 23.5653C7.87845 21.1925 6.43576 18.436 4.65614 17.4086ZM4.65614 25.1603C3.22489 24.334 2.06457 22.1171 2.06457 20.2088C2.06457 18.3004 3.22482 17.4233 4.65614 18.2496C6.08739 19.0759 7.24764 21.2928 7.24764 23.2012C7.24764 25.1095 6.08739 25.9866 4.65614 25.1603Z" fill="#1E3C5D"/>
<path d="M12.7313 23.1015C12.4393 23.1015 12.2026 22.8648 12.2026 22.5728V19.3121L5.3137 15.3348C5.06082 15.1889 4.9742 14.8655 5.1202 14.6126C5.2662 14.3597 5.58957 14.2731 5.84238 14.4191L12.7509 18.4078C13.0649 18.5891 13.26 18.927 13.26 19.2895V22.5728C13.26 22.8648 13.0233 23.1015 12.7313 23.1015Z" fill="#DFE7F0"/>
<path d="M14.4241 30.5166C14.4241 31.7636 13.6659 32.3368 12.7307 31.7968C11.7954 31.2568 11.0372 29.8082 11.0372 28.5611C11.0372 27.3141 11.7954 26.741 12.7307 27.281C13.6659 27.821 14.4241 29.2696 14.4241 30.5166Z" fill="url(#paint10_linear_1_5067)"/>
<path d="M12.9635 31.0524C13.389 30.8711 13.4741 30.1145 13.1537 29.3624C12.8332 28.6103 12.2285 28.1476 11.8031 28.3289C11.3776 28.5102 11.2924 29.2668 11.6129 30.0189C11.9334 30.771 12.538 31.2337 12.9635 31.0524Z" fill="#9EC6F3"/>
<path d="M13.0281 29.8302C13.0281 30.2017 12.8022 30.3725 12.5236 30.2116C12.245 30.0508 12.0191 29.6192 12.0191 29.2476C12.0191 28.8761 12.2449 28.7053 12.5236 28.8662C12.8022 29.0271 13.0281 29.4586 13.0281 29.8302Z" fill="#1E3C5D"/>
<path d="M9.33018 15.5335L4.88287 12.9658C4.792 12.9133 4.68 12.9133 4.58912 12.9658L3.06212 13.8475C3.02469 13.8691 3.00593 13.9068 3.0055 13.9446H3.00537V13.9454V13.9463L3.00531 14.6743V14.6764H3.00543C3.00612 14.714 3.02494 14.7513 3.06212 14.7727L7.50937 17.3403C7.60025 17.3928 7.71225 17.3928 7.80312 17.3403L9.33012 16.4587C9.368 16.4369 9.38693 16.3986 9.38693 16.3603V15.6318C9.387 15.5936 9.36806 15.5553 9.33018 15.5335Z" fill="url(#paint11_linear_1_5067)"/>
<path d="M3.06218 13.8475L4.58918 12.9658C4.68005 12.9133 4.79205 12.9133 4.88293 12.9658L9.33024 15.5335C9.40593 15.5771 9.40593 15.6865 9.33024 15.7302L7.80324 16.6118C7.71236 16.6643 7.60036 16.6643 7.50949 16.6118L3.06224 14.0442C2.98643 14.0005 2.98643 13.8911 3.06218 13.8475Z" fill="url(#paint12_linear_1_5067)"/>
<path d="M12.7318 27.0697C12.5498 27.0697 12.3726 26.9756 12.2744 26.8069C12.1276 26.5545 12.2131 26.2309 12.4654 26.084L20.6389 21.3264C20.8911 21.1796 21.2148 21.265 21.3618 21.5174C21.5086 21.7698 21.4231 22.0934 21.1708 22.2403L12.9973 26.9978C12.9136 27.0466 12.8221 27.0697 12.7318 27.0697Z" fill="#DFE7F0"/>
<path d="M22.677 25.7196V25.7186L22.6769 25.7187C22.6764 25.6724 22.6534 25.6263 22.6076 25.5998L20.7389 24.5209C20.6276 24.4566 20.4906 24.4566 20.3794 24.5209L17.6928 26.0679C17.6465 26.0947 17.6233 26.1415 17.6233 26.1883V26.7549C17.6233 26.8017 17.6465 26.8485 17.6928 26.8752L19.5615 27.9542C19.6728 28.0184 19.8098 28.0184 19.921 27.9542L22.6076 26.4071C22.6531 26.3809 22.6761 26.3352 22.6769 26.2893L22.6771 26.2892V26.2867V26.2867L22.677 25.7207C22.677 25.7204 22.677 25.7199 22.677 25.7196Z" fill="url(#paint13_linear_1_5067)"/>
<path d="M22.6074 25.5998L20.7386 24.5209C20.6274 24.4566 20.4904 24.4566 20.3791 24.5209L17.6926 26.0679C17.5999 26.1214 17.5999 26.2552 17.6926 26.3087L19.5613 27.3876C19.6726 27.4518 19.8096 27.4518 19.9208 27.3876L22.6074 25.8406C22.7001 25.7871 22.7001 25.6533 22.6074 25.5998Z" fill="url(#paint14_linear_1_5067)"/>
<defs>
<linearGradient id="paint0_linear_1_5067" x1="21.6356" y1="26.6263" x2="21.6356" y2="22.827" gradientUnits="userSpaceOnUse">
<stop stop-color="#054A86"/>
<stop offset="1" stop-color="#0C6ECA"/>
</linearGradient>
<linearGradient id="paint1_linear_1_5067" x1="15.2614" y1="21.224" x2="15.2614" y2="11.4352" gradientUnits="userSpaceOnUse">
<stop stop-color="#054A86"/>
<stop offset="1" stop-color="#0C6ECA"/>
</linearGradient>
<linearGradient id="paint2_linear_1_5067" x1="21.3535" y1="10.3275" x2="12.1231" y2="11.7424" gradientUnits="userSpaceOnUse">
<stop stop-color="#054A86"/>
<stop offset="0.40012" stop-color="#2D8CE2"/>
<stop offset="1" stop-color="#004C93"/>
</linearGradient>
<linearGradient id="paint3_linear_1_5067" x1="16.4234" y1="10.8294" x2="16.4234" y2="7.95459" gradientUnits="userSpaceOnUse">
<stop stop-color="#054A86"/>
<stop offset="1" stop-color="#0C6ECA"/>
</linearGradient>
<linearGradient id="paint4_linear_1_5067" x1="13.3151" y1="30.4921" x2="16.1784" y2="29.5878" gradientUnits="userSpaceOnUse">
<stop stop-color="#054A86"/>
<stop offset="1" stop-color="#0C6ECA"/>
</linearGradient>
<linearGradient id="paint5_linear_1_5067" x1="14.8995" y1="30.3909" x2="14.8995" y2="28.1039" gradientUnits="userSpaceOnUse">
<stop stop-color="#054A86"/>
<stop offset="1" stop-color="#0C6ECA"/>
</linearGradient>
<linearGradient id="paint6_linear_1_5067" x1="12.6615" y1="20.4118" x2="12.6615" y2="6.45254" gradientUnits="userSpaceOnUse">
<stop stop-color="#054A86"/>
<stop offset="1" stop-color="#0C6ECA"/>
</linearGradient>
<linearGradient id="paint7_linear_1_5067" x1="5.73457" y1="20.9891" x2="10.8615" y2="14.1538" gradientUnits="userSpaceOnUse">
<stop stop-color="#6AA4E7"/>
<stop offset="1" stop-color="#C2DFFF"/>
</linearGradient>
<linearGradient id="paint8_linear_1_5067" x1="6.1391" y1="25.3791" x2="9.99081" y2="9.37434" gradientUnits="userSpaceOnUse">
<stop stop-color="#3376C3"/>
<stop offset="1" stop-color="#B3D5FC"/>
</linearGradient>
<linearGradient id="paint9_linear_1_5067" x1="5.03419" y1="27.1604" x2="5.03419" y2="17.3715" gradientUnits="userSpaceOnUse">
<stop stop-color="#054A86"/>
<stop offset="1" stop-color="#0C6ECA"/>
</linearGradient>
<linearGradient id="paint10_linear_1_5067" x1="11.2803" y1="30.8994" x2="14.181" y2="28.8151" gradientUnits="userSpaceOnUse">
<stop stop-color="#054A86"/>
<stop offset="1" stop-color="#0C6ECA"/>
</linearGradient>
<linearGradient id="paint11_linear_1_5067" x1="11.1439" y1="16.7269" x2="1.00933" y2="16.9528" gradientUnits="userSpaceOnUse">
<stop stop-color="#054A86"/>
<stop offset="0.40012" stop-color="#2D8CE2"/>
<stop offset="1" stop-color="#004C93"/>
</linearGradient>
<linearGradient id="paint12_linear_1_5067" x1="6.19619" y1="16.4672" x2="6.19619" y2="13.5923" gradientUnits="userSpaceOnUse">
<stop stop-color="#054A86"/>
<stop offset="1" stop-color="#0C6ECA"/>
</linearGradient>
<linearGradient id="paint13_linear_1_5067" x1="18.5656" y1="27.3905" x2="21.4289" y2="26.4863" gradientUnits="userSpaceOnUse">
<stop stop-color="#054A86"/>
<stop offset="1" stop-color="#0C6ECA"/>
</linearGradient>
<linearGradient id="paint14_linear_1_5067" x1="20.15" y1="27.2894" x2="20.15" y2="25.0024" gradientUnits="userSpaceOnUse">
<stop stop-color="#054A86"/>
<stop offset="1" stop-color="#0C6ECA"/>
</linearGradient>
</defs>
</svg>
