<svg width="26" height="29" viewBox="0 0 26 29" fill="none" xmlns="http://www.w3.org/2000/svg">
<path d="M7.33246 19.2234C9.28798 20.6456 11.2436 21.7834 13.1991 21.7834C15.1547 21.7834 17.1103 20.6456 19.0658 19.2234C17.4539 18.7327 16.6361 18.0003 16.6125 17.0261C16.6125 16.8524 16.6137 16.6058 16.6149 16.1428C16.6149 16.0692 16.6151 15.9939 16.6155 15.9168C16.6187 14.6752 16.6239 13.0368 16.6312 11.3728C18.16 9.3913 17.5984 7.0682 17.1193 7.12612C16.532 7.19759 11.4437 2.369 10.4677 2.12143C9.49172 1.87385 7.01246 2.67311 6.5858 4.89978C6.15913 7.12644 5.98078 12.739 7.59913 14.9798C8.05965 15.6174 8.78498 15.8669 9.77513 15.728C9.77652 16.1941 9.77929 16.4556 9.7858 16.9834C9.7731 18.002 8.9554 18.7333 7.33246 19.2234Z" fill="url(#paint0_linear_1_9017)"/>
<path d="M9.78589 15.7253C12.1326 15.4586 13.6259 14.4453 13.6259 14.4453C13.6259 14.4453 11.9192 16.5786 9.78589 17.0053V15.7253Z" fill="#FC9F6A"/>
<path d="M17.4123 11.4049C18.1473 9.63741 21.0923 6.03773 18.5537 3.79773C17.7003 -0.362269 12.9857 0.0982113 9.83899 1.05821C7.72411 1.70344 6.12699 2.97821 5.78565 2.01821C3.65232 3.79773 4.72069 5.53821 6.12699 6.03773C7.40336 6.49106 9.56166 6.9444 13.2316 6.51773C13.8872 6.44146 13.7499 8.44925 14.1002 8.66632C14.6258 8.99197 15.0337 6.9444 16.4745 7.55922C17.9154 8.17405 17.0603 11.0248 15.5137 11.0248C14.9803 11.0248 14.7137 12.4912 16.1537 13.1845C17.199 13.6982 16.9348 12.5534 17.4123 11.4049Z" fill="url(#paint1_linear_1_9017)"/>
<path d="M24.3992 22.4717C25.4146 24.5365 25.9992 29.2984 25.9992 29.2984H0.39917C0.39917 29.2984 0.983917 24.5359 1.99917 22.4717C3.01442 20.4075 8.94317 18.4929 8.94317 18.4929C12.2192 19.7722 14.224 19.7722 17.4521 18.4922C17.4521 18.4922 23.3837 20.407 24.3992 22.4717Z" fill="url(#paint2_linear_1_9017)"/>
<path d="M13.9463 19.2404L14.4797 29.0537H11.9197L12.453 19.2404C12.453 19.2404 12.9508 18.707 13.1997 18.707C13.4485 18.707 13.9463 19.2404 13.9463 19.2404Z" fill="url(#paint3_linear_1_9017)"/>
<path d="M14.0677 21.2342L12.3904 20.265L12.4529 19.2404C12.7848 18.8848 13.0337 18.707 13.1996 18.707C13.3655 18.707 13.6143 18.8848 13.9462 19.2404L14.0678 21.2342H14.0677Z" fill="#645050"/>
<path d="M13.199 18.7073L12.1324 20.6282L8.82568 18.6015L9.78568 17.2148L13.199 18.4758L16.6124 17.2148L17.5724 18.6015L14.2657 20.6282L13.199 18.7073Z" fill="white"/>
<defs>
<linearGradient id="paint0_linear_1_9017" x1="12.6788" y1="2.07812" x2="12.6788" y2="21.7834" gradientUnits="userSpaceOnUse">
<stop stop-color="#F7B186"/>
<stop offset="1" stop-color="#FFC299"/>
</linearGradient>
<linearGradient id="paint1_linear_1_9017" x1="12.0726" y1="0.40625" x2="12.0726" y2="13.3108" gradientUnits="userSpaceOnUse">
<stop stop-color="#1D0024"/>
<stop offset="1" stop-color="#100014"/>
</linearGradient>
<linearGradient id="paint2_linear_1_9017" x1="13.1992" y1="18.4922" x2="13.1992" y2="29.2984" gradientUnits="userSpaceOnUse">
<stop stop-color="#1D0024"/>
<stop offset="1" stop-color="#100014"/>
</linearGradient>
<linearGradient id="paint3_linear_1_9017" x1="13.1997" y1="18.707" x2="13.1997" y2="29.0537" gradientUnits="userSpaceOnUse">
<stop stop-color="#806A6A"/>
<stop offset="1" stop-color="#665654"/>
</linearGradient>
</defs>
</svg>
